
<svg xmlns="http://www.w3.org/2000/svg" xmlns:xlink="http://www.w3.org/1999/xlink" contentStyleType="text/css" data-diagram-type="CLASS" height="1208px" preserveAspectRatio="none" style="width:2139px;height:1208px;background:#FFFFFF;" version="1.1" viewBox="0 0 2139 1208" width="2139px" zoomAndPan="magnify"><defs/><g><!--class CustomerShortInfo--><g id="elem_CustomerShortInfo"><rect codeLine="3" fill="#F1F1F1" height="341.3438" id="CustomerShortInfo" rx="2.5" ry="2.5" style="stroke:#181818;stroke-width:0.5;" width="399.4678" x="656.56" y="311.26"/><ellipse cx="786.0087" cy="327.26" fill="#ADD1B2" rx="11" ry="11" style="stroke:#181818;stroke-width:1;"/><path d="M788.9775,332.9006 Q788.3994,333.1975 787.7587,333.3381 Q787.1181,333.4944 786.415,333.4944 Q783.915,333.4944 782.5869,331.8537 Q781.2744,330.1975 781.2744,327.0725 Q781.2744,323.9475 782.5869,322.2912 Q783.915,320.635 786.415,320.635 Q787.1181,320.635 787.7587,320.7912 Q788.415,320.9475 788.9775,321.2444 L788.9775,323.9631 Q788.3525,323.385 787.7587,323.1194 Q787.165,322.8381 786.54,322.8381 Q785.1962,322.8381 784.5087,323.9162 Q783.8212,324.9787 783.8212,327.0725 Q783.8212,329.1662 784.5087,330.2444 Q785.1962,331.3069 786.54,331.3069 Q787.165,331.3069 787.7587,331.0412 Q788.3525,330.76 788.9775,330.1819 L788.9775,332.9006 Z " fill="#000000"/><text fill="#000000" font-family="sans-serif" font-size="14" lengthAdjust="spacing" textLength="132.0703" x="806.5087" y="332.1067">CustomerShortInfo</text><line style="stroke:#181818;stroke-width:0.5;" x1="657.56" x2="1055.0278" y1="343.26" y2="343.26"/><rect fill="#FFFFFF" fill-opacity="0.00000" height="6" style="stroke:#C82930;stroke-width:1;" width="6" x="664.56" y="353.9084"/><text fill="#000000" font-family="sans-serif" font-size="14" lengthAdjust="spacing" textLength="113.1211" x="676.56" y="360.2551">customer_id: int</text><rect fill="#FFFFFF" fill-opacity="0.00000" height="6" style="stroke:#C82930;stroke-width:1;" width="6" x="664.56" y="370.2053"/><text fill="#000000" font-family="sans-serif" font-size="14" lengthAdjust="spacing" textLength="123.416" x="676.56" y="376.552">first_name: string</text><rect fill="#FFFFFF" fill-opacity="0.00000" height="6" style="stroke:#C82930;stroke-width:1;" width="6" x="664.56" y="386.5022"/><text fill="#000000" font-family="sans-serif" font-size="14" lengthAdjust="spacing" textLength="121.3105" x="676.56" y="392.8489">last_name: string</text><rect fill="#FFFFFF" fill-opacity="0.00000" height="6" style="stroke:#C82930;stroke-width:1;" width="6" x="664.56" y="402.7991"/><text fill="#000000" font-family="sans-serif" font-size="14" lengthAdjust="spacing" textLength="154.8066" x="676.56" y="409.1457">phone_number: string</text><line style="stroke:#181818;stroke-width:0.5;" x1="657.56" x2="1055.0278" y1="416.4475" y2="416.4475"/><ellipse cx="667.56" cy="430.0959" fill="#84BE84" rx="3" ry="3" style="stroke:#038048;stroke-width:1;"/><text fill="#000000" font-family="sans-serif" font-size="14" lengthAdjust="spacing" textLength="338.666" x="676.56" y="433.4426">from_string(data_str: string): CustomerShortInfo</text><ellipse cx="667.56" cy="446.3928" fill="#84BE84" rx="3" ry="3" style="stroke:#038048;stroke-width:1;"/><text fill="#000000" font-family="sans-serif" font-size="14" lengthAdjust="spacing" textLength="239.1074" x="676.56" y="449.7395">validate_id(customer_id: int): bool</text><ellipse cx="667.56" cy="462.6897" fill="#84BE84" rx="3" ry="3" style="stroke:#038048;stroke-width:1;"/><text fill="#000000" font-family="sans-serif" font-size="14" lengthAdjust="spacing" textLength="241.9717" x="676.56" y="466.0364">validate_name(name: string): bool</text><ellipse cx="667.56" cy="478.9866" fill="#84BE84" rx="3" ry="3" style="stroke:#038048;stroke-width:1;"/><text fill="#000000" font-family="sans-serif" font-size="14" lengthAdjust="spacing" textLength="373.4678" x="676.56" y="482.3332">validate_phone_number(phone_number: string): bool</text><ellipse cx="667.56" cy="495.2834" fill="#84BE84" rx="3" ry="3" style="stroke:#038048;stroke-width:1;"/><text fill="#000000" font-family="sans-serif" font-size="14" lengthAdjust="spacing" textLength="154.0342" x="676.56" y="498.6301">get_customer_id(): int</text><ellipse cx="667.56" cy="511.5803" fill="#84BE84" rx="3" ry="3" style="stroke:#038048;stroke-width:1;"/><text fill="#000000" font-family="sans-serif" font-size="14" lengthAdjust="spacing" textLength="164.3291" x="676.56" y="514.927">get_first_name(): string</text><ellipse cx="667.56" cy="527.8772" fill="#84BE84" rx="3" ry="3" style="stroke:#038048;stroke-width:1;"/><text fill="#000000" font-family="sans-serif" font-size="14" lengthAdjust="spacing" textLength="162.2236" x="676.56" y="531.2239">get_last_name(): string</text><ellipse cx="667.56" cy="544.1741" fill="#84BE84" rx="3" ry="3" style="stroke:#038048;stroke-width:1;"/><text fill="#000000" font-family="sans-serif" font-size="14" lengthAdjust="spacing" textLength="195.7197" x="676.56" y="547.5207">get_phone_number(): string</text><ellipse cx="667.56" cy="560.4709" fill="#84BE84" rx="3" ry="3" style="stroke:#038048;stroke-width:1;"/><text fill="#000000" font-family="sans-serif" font-size="14" lengthAdjust="spacing" textLength="211.0117" x="676.56" y="563.8176">_set_id(customer_id: int): void</text><ellipse cx="667.56" cy="576.7678" fill="#84BE84" rx="3" ry="3" style="stroke:#038048;stroke-width:1;"/><text fill="#000000" font-family="sans-serif" font-size="14" lengthAdjust="spacing" textLength="275.5908" x="676.56" y="580.1145">set_first_name(first_name: string): void</text><ellipse cx="667.56" cy="593.0647" fill="#84BE84" rx="3" ry="3" style="stroke:#038048;stroke-width:1;"/><text fill="#000000" font-family="sans-serif" font-size="14" lengthAdjust="spacing" textLength="271.3799" x="676.56" y="596.4114">set_last_name(last_name: string): void</text><ellipse cx="667.56" cy="609.3616" fill="#84BE84" rx="3" ry="3" style="stroke:#038048;stroke-width:1;"/><text fill="#000000" font-family="sans-serif" font-size="14" lengthAdjust="spacing" textLength="338.3721" x="676.56" y="612.7082">set_phone_number(phone_number: string): void</text><ellipse cx="667.56" cy="625.6584" fill="#84BE84" rx="3" ry="3" style="stroke:#038048;stroke-width:1;"/><text fill="#000000" font-family="sans-serif" font-size="14" lengthAdjust="spacing" textLength="246.0322" x="676.56" y="629.0051">eq(other: CustomerShortInfo): bool</text><ellipse cx="667.56" cy="641.9553" fill="#84BE84" rx="3" ry="3" style="stroke:#038048;stroke-width:1;"/><text fill="#000000" font-family="sans-serif" font-size="14" lengthAdjust="spacing" textLength="78.8184" x="676.56" y="645.302">str(): string</text></g><!--class Customer--><g id="elem_Customer"><rect codeLine="25" fill="#F1F1F1" height="488.0156" id="Customer" rx="2.5" ry="2.5" style="stroke:#181818;stroke-width:0.5;" width="364.666" x="673.96" y="713.6"/><ellipse cx="818.0411" cy="729.6" fill="#ADD1B2" rx="11" ry="11" style="stroke:#181818;stroke-width:1;"/><path d="M821.0098,735.2406 Q820.4317,735.5375 819.7911,735.6781 Q819.1504,735.8344 818.4473,735.8344 Q815.9473,735.8344 814.6192,734.1937 Q813.3067,732.5375 813.3067,729.4125 Q813.3067,726.2875 814.6192,724.6312 Q815.9473,722.975 818.4473,722.975 Q819.1504,722.975 819.7911,723.1312 Q820.4473,723.2875 821.0098,723.5844 L821.0098,726.3031 Q820.3848,725.725 819.7911,725.4594 Q819.1973,725.1781 818.5723,725.1781 Q817.2286,725.1781 816.5411,726.2562 Q815.8536,727.3187 815.8536,729.4125 Q815.8536,731.5062 816.5411,732.5844 Q817.2286,733.6469 818.5723,733.6469 Q819.1973,733.6469 819.7911,733.3812 Q820.3848,733.1 821.0098,732.5219 L821.0098,735.2406 Z " fill="#000000"/><text fill="#000000" font-family="sans-serif" font-size="14" lengthAdjust="spacing" textLength="68.0039" x="838.5411" y="734.4467">Customer</text><line style="stroke:#181818;stroke-width:0.5;" x1="674.96" x2="1037.626" y1="745.6" y2="745.6"/><rect fill="#FFFFFF" fill-opacity="0.00000" height="6" style="stroke:#C82930;stroke-width:1;" width="6" x="681.96" y="756.2484"/><text fill="#000000" font-family="sans-serif" font-size="14" lengthAdjust="spacing" textLength="87.9648" x="693.96" y="762.5951">email: string</text><rect fill="#FFFFFF" fill-opacity="0.00000" height="6" style="stroke:#C82930;stroke-width:1;" width="6" x="681.96" y="772.5453"/><text fill="#000000" font-family="sans-serif" font-size="14" lengthAdjust="spacing" textLength="104.665" x="693.96" y="778.892">address: string</text><rect fill="#FFFFFF" fill-opacity="0.00000" height="6" style="stroke:#C82930;stroke-width:1;" width="6" x="681.96" y="788.8422"/><text fill="#000000" font-family="sans-serif" font-size="14" lengthAdjust="spacing" textLength="74.7168" x="693.96" y="795.1889">city: string</text><rect fill="#FFFFFF" fill-opacity="0.00000" height="6" style="stroke:#C82930;stroke-width:1;" width="6" x="681.96" y="805.1391"/><text fill="#000000" font-family="sans-serif" font-size="14" lengthAdjust="spacing" textLength="132.8223" x="693.96" y="811.4857">postal_code: string</text><rect fill="#FFFFFF" fill-opacity="0.00000" height="6" style="stroke:#C82930;stroke-width:1;" width="6" x="681.96" y="821.4359"/><text fill="#000000" font-family="sans-serif" font-size="14" lengthAdjust="spacing" textLength="102.8945" x="693.96" y="827.7826">country: string</text><rect fill="#FFFFFF" fill-opacity="0.00000" height="6" style="stroke:#C82930;stroke-width:1;" width="6" x="681.96" y="837.7328"/><text fill="#000000" font-family="sans-serif" font-size="14" lengthAdjust="spacing" textLength="122.0215" x="693.96" y="844.0795">date_joined: date</text><line style="stroke:#181818;stroke-width:0.5;" x1="674.96" x2="1037.626" y1="851.3812" y2="851.3812"/><ellipse cx="684.96" cy="865.0297" fill="#84BE84" rx="3" ry="3" style="stroke:#038048;stroke-width:1;"/><text fill="#000000" font-family="sans-serif" font-size="14" lengthAdjust="spacing" textLength="239.7842" x="693.96" y="868.3764">validate_email(email: string): bool</text><ellipse cx="684.96" cy="881.3266" fill="#84BE84" rx="3" ry="3" style="stroke:#038048;stroke-width:1;"/><text fill="#000000" font-family="sans-serif" font-size="14" lengthAdjust="spacing" textLength="326.2178" x="693.96" y="884.6732">validate_non_empty_string(value: string): bool</text><ellipse cx="684.96" cy="897.6234" fill="#84BE84" rx="3" ry="3" style="stroke:#038048;stroke-width:1;"/><text fill="#000000" font-family="sans-serif" font-size="14" lengthAdjust="spacing" textLength="329.499" x="693.96" y="900.9701">validate_postal_code(postal_code: string): bool</text><ellipse cx="684.96" cy="913.9203" fill="#84BE84" rx="3" ry="3" style="stroke:#038048;stroke-width:1;"/><text fill="#000000" font-family="sans-serif" font-size="14" lengthAdjust="spacing" textLength="316.5176" x="693.96" y="917.267">validate_date_joined(date_joined: date): bool</text><ellipse cx="684.96" cy="930.2172" fill="#84BE84" rx="3" ry="3" style="stroke:#038048;stroke-width:1;"/><text fill="#000000" font-family="sans-serif" font-size="14" lengthAdjust="spacing" textLength="338.666" x="693.96" y="933.5639">from_string(data_str: string): CustomerShortInfo</text><ellipse cx="684.96" cy="946.5141" fill="#84BE84" rx="3" ry="3" style="stroke:#038048;stroke-width:1;"/><text fill="#000000" font-family="sans-serif" font-size="14" lengthAdjust="spacing" textLength="128.8779" x="693.96" y="949.8607">get_email(): string</text><ellipse cx="684.96" cy="962.8109" fill="#84BE84" rx="3" ry="3" style="stroke:#038048;stroke-width:1;"/><text fill="#000000" font-family="sans-serif" font-size="14" lengthAdjust="spacing" textLength="145.5781" x="693.96" y="966.1576">get_address(): string</text><ellipse cx="684.96" cy="979.1078" fill="#84BE84" rx="3" ry="3" style="stroke:#038048;stroke-width:1;"/><text fill="#000000" font-family="sans-serif" font-size="14" lengthAdjust="spacing" textLength="162.2236" x="693.96" y="982.4545">get_last_name(): string</text><ellipse cx="684.96" cy="995.4047" fill="#84BE84" rx="3" ry="3" style="stroke:#038048;stroke-width:1;"/><text fill="#000000" font-family="sans-serif" font-size="14" lengthAdjust="spacing" textLength="115.6299" x="693.96" y="998.7514">get_city(): string</text><ellipse cx="684.96" cy="1011.7016" fill="#84BE84" rx="3" ry="3" style="stroke:#038048;stroke-width:1;"/><text fill="#000000" font-family="sans-serif" font-size="14" lengthAdjust="spacing" textLength="173.7354" x="693.96" y="1015.0482">get_postal_code(): string</text><ellipse cx="684.96" cy="1027.9984" fill="#84BE84" rx="3" ry="3" style="stroke:#038048;stroke-width:1;"/><text fill="#000000" font-family="sans-serif" font-size="14" lengthAdjust="spacing" textLength="143.8076" x="693.96" y="1031.3451">get_country(): string</text><ellipse cx="684.96" cy="1044.2953" fill="#84BE84" rx="3" ry="3" style="stroke:#038048;stroke-width:1;"/><text fill="#000000" font-family="sans-serif" font-size="14" lengthAdjust="spacing" textLength="171.5547" x="693.96" y="1047.642">get_date_joined(): string</text><ellipse cx="684.96" cy="1060.5922" fill="#84BE84" rx="3" ry="3" style="stroke:#038048;stroke-width:1;"/><text fill="#000000" font-family="sans-serif" font-size="14" lengthAdjust="spacing" textLength="204.6885" x="693.96" y="1063.9389">set_email(email: string): void</text><ellipse cx="684.96" cy="1076.8891" fill="#84BE84" rx="3" ry="3" style="stroke:#038048;stroke-width:1;"/><text fill="#000000" font-family="sans-serif" font-size="14" lengthAdjust="spacing" textLength="238.0889" x="693.96" y="1080.2357">set_address(address: string): void</text><ellipse cx="684.96" cy="1093.1859" fill="#84BE84" rx="3" ry="3" style="stroke:#038048;stroke-width:1;"/><text fill="#000000" font-family="sans-serif" font-size="14" lengthAdjust="spacing" textLength="178.1924" x="693.96" y="1096.5326">set_city(city: string): void</text><ellipse cx="684.96" cy="1109.4828" fill="#84BE84" rx="3" ry="3" style="stroke:#038048;stroke-width:1;"/><text fill="#000000" font-family="sans-serif" font-size="14" lengthAdjust="spacing" textLength="294.4033" x="693.96" y="1112.8295">set_postal_code(postal_code: string): void</text><ellipse cx="684.96" cy="1125.7797" fill="#84BE84" rx="3" ry="3" style="stroke:#038048;stroke-width:1;"/><text fill="#000000" font-family="sans-serif" font-size="14" lengthAdjust="spacing" textLength="234.5479" x="693.96" y="1129.1264">set_country(country: string): void</text><ellipse cx="684.96" cy="1142.0766" fill="#84BE84" rx="3" ry="3" style="stroke:#038048;stroke-width:1;"/><text fill="#000000" font-family="sans-serif" font-size="14" lengthAdjust="spacing" textLength="281.4219" x="693.96" y="1145.4232">set_date_joined(date_joined: date): void</text><ellipse cx="684.96" cy="1158.3734" fill="#84BE84" rx="3" ry="3" style="stroke:#038048;stroke-width:1;"/><text fill="#000000" font-family="sans-serif" font-size="14" lengthAdjust="spacing" textLength="78.8184" x="693.96" y="1161.7201">str(): string</text><ellipse cx="684.96" cy="1174.6703" fill="#84BE84" rx="3" ry="3" style="stroke:#038048;stroke-width:1;"/><text fill="#000000" font-family="sans-serif" font-size="14" lengthAdjust="spacing" textLength="129.5137" x="693.96" y="1178.017">short_info(): string</text><ellipse cx="684.96" cy="1190.9672" fill="#84BE84" rx="3" ry="3" style="stroke:#038048;stroke-width:1;"/><text fill="#000000" font-family="sans-serif" font-size="14" lengthAdjust="spacing" textLength="181.9658" x="693.96" y="1194.3139">eq(other: Customer): bool</text></g><!--class CustomerRepBase--><g id="elem_CustomerRepBase"><rect codeLine="56" fill="#F1F1F1" height="227.2656" id="CustomerRepBase" rx="2.5" ry="2.5" style="stroke:#181818;stroke-width:0.5;" width="451.8721" x="75.36" y="7"/><ellipse cx="232.3849" cy="23" fill="#ADD1B2" rx="11" ry="11" style="stroke:#181818;stroke-width:1;"/><path d="M235.3537,28.6406 Q234.7755,28.9375 234.1349,29.0781 Q233.4943,29.2344 232.7912,29.2344 Q230.2912,29.2344 228.963,27.5938 Q227.6505,25.9375 227.6505,22.8125 Q227.6505,19.6875 228.963,18.0313 Q230.2912,16.375 232.7912,16.375 Q233.4943,16.375 234.1349,16.5313 Q234.7912,16.6875 235.3537,16.9844 L235.3537,19.7031 Q234.7287,19.125 234.1349,18.8594 Q233.5412,18.5781 232.9162,18.5781 Q231.5724,18.5781 230.8849,19.6563 Q230.1974,20.7188 230.1974,22.8125 Q230.1974,24.9063 230.8849,25.9844 Q231.5724,27.0469 232.9162,27.0469 Q233.5412,27.0469 234.1349,26.7813 Q234.7287,26.5 235.3537,25.9219 L235.3537,28.6406 Z " fill="#000000"/><text fill="#000000" font-family="sans-serif" font-size="14" lengthAdjust="spacing" textLength="129.3223" x="252.8849" y="27.8467">CustomerRepBase</text><line style="stroke:#181818;stroke-width:0.5;" x1="76.36" x2="526.2321" y1="39" y2="39"/><rect fill="#FFFFFF" fill-opacity="0.00000" height="6" style="stroke:#C82930;stroke-width:1;" width="6" x="83.36" y="49.6484"/><text fill="#000000" font-family="sans-serif" font-size="14" lengthAdjust="spacing" textLength="109.5049" x="95.36" y="55.9951">file_path: string</text><rect fill="#FFFFFF" fill-opacity="0.00000" height="6" style="stroke:#C82930;stroke-width:1;" width="6" x="83.36" y="65.9453"/><text fill="#000000" font-family="sans-serif" font-size="14" lengthAdjust="spacing" textLength="143.7461" x="95.36" y="72.292">customers: List[dict]</text><line style="stroke:#181818;stroke-width:0.5;" x1="76.36" x2="526.2321" y1="79.5938" y2="79.5938"/><ellipse cx="86.36" cy="93.2422" fill="#84BE84" rx="3" ry="3" style="stroke:#038048;stroke-width:1;"/><text fill="#000000" font-family="sans-serif" font-size="14" lengthAdjust="spacing" textLength="198.5908" x="95.36" y="96.5889">_load_customers(): List[dict]</text><ellipse cx="86.36" cy="109.5391" fill="#84BE84" rx="3" ry="3" style="stroke:#038048;stroke-width:1;"/><text fill="#000000" font-family="sans-serif" font-size="14" lengthAdjust="spacing" textLength="169.709" x="95.36" y="112.8857">_save_customers(): void</text><ellipse cx="86.36" cy="125.8359" fill="#84BE84" rx="3" ry="3" style="stroke:#038048;stroke-width:1;"/><text fill="#000000" font-family="sans-serif" font-size="14" lengthAdjust="spacing" textLength="296.2285" x="95.36" y="129.1826">get_by_id(customer_id: int): Optional[dict]</text><ellipse cx="86.36" cy="142.1328" fill="#84BE84" rx="3" ry="3" style="stroke:#038048;stroke-width:1;"/><text fill="#000000" font-family="sans-serif" font-size="14" lengthAdjust="spacing" textLength="286.6787" x="95.36" y="145.4795">get_k_n_short_list(k: int, n: int): List[dict]</text><ellipse cx="86.36" cy="158.4297" fill="#84BE84" rx="3" ry="3" style="stroke:#038048;stroke-width:1;"/><text fill="#000000" font-family="sans-serif" font-size="14" lengthAdjust="spacing" textLength="196.1162" x="95.36" y="161.7764">sort_by_field(field: str): void</text><ellipse cx="86.36" cy="174.7266" fill="#84BE84" rx="3" ry="3" style="stroke:#038048;stroke-width:1;"/><text fill="#000000" font-family="sans-serif" font-size="14" lengthAdjust="spacing" textLength="288.5859" x="95.36" y="178.0732">add_customer(customer_data: dict): void</text><ellipse cx="86.36" cy="191.0234" fill="#84BE84" rx="3" ry="3" style="stroke:#038048;stroke-width:1;"/><text fill="#000000" font-family="sans-serif" font-size="14" lengthAdjust="spacing" textLength="425.8721" x="95.36" y="194.3701">update_customer(customer_id: int, updated_data: dict): void</text><ellipse cx="86.36" cy="207.3203" fill="#84BE84" rx="3" ry="3" style="stroke:#038048;stroke-width:1;"/><text fill="#000000" font-family="sans-serif" font-size="14" lengthAdjust="spacing" textLength="279.8701" x="95.36" y="210.667">delete_customer(customer_id: int): void</text><ellipse cx="86.36" cy="223.6172" fill="#84BE84" rx="3" ry="3" style="stroke:#038048;stroke-width:1;"/><text fill="#000000" font-family="sans-serif" font-size="14" lengthAdjust="spacing" textLength="107.8301" x="95.36" y="226.9639">get_count(): int</text></g><!--class CustomerRepJSON--><g id="elem_CustomerRepJSON"><rect codeLine="71" fill="#F1F1F1" height="80.5938" id="CustomerRepJSON" rx="2.5" ry="2.5" style="stroke:#181818;stroke-width:0.5;" width="224.5908" x="397" y="441.64"/><ellipse cx="440.2832" cy="457.64" fill="#ADD1B2" rx="11" ry="11" style="stroke:#181818;stroke-width:1;"/><path d="M443.252,463.2806 Q442.6738,463.5775 442.0332,463.7181 Q441.3926,463.8744 440.6895,463.8744 Q438.1895,463.8744 436.8613,462.2337 Q435.5488,460.5775 435.5488,457.4525 Q435.5488,454.3275 436.8613,452.6712 Q438.1895,451.015 440.6895,451.015 Q441.3926,451.015 442.0332,451.1712 Q442.6895,451.3275 443.252,451.6244 L443.252,454.3431 Q442.627,453.765 442.0332,453.4994 Q441.4395,453.2181 440.8145,453.2181 Q439.4707,453.2181 438.7832,454.2962 Q438.0957,455.3587 438.0957,457.4525 Q438.0957,459.5462 438.7832,460.6244 Q439.4707,461.6869 440.8145,461.6869 Q441.4395,461.6869 442.0332,461.4212 Q442.627,461.14 443.252,460.5619 L443.252,463.2806 Z " fill="#000000"/><text fill="#000000" font-family="sans-serif" font-size="14" lengthAdjust="spacing" textLength="129.7393" x="460.5684" y="462.4867">CustomerRepJSON</text><line style="stroke:#181818;stroke-width:0.5;" x1="398" x2="620.5908" y1="473.64" y2="473.64"/><line style="stroke:#181818;stroke-width:0.5;" x1="398" x2="620.5908" y1="481.64" y2="481.64"/><ellipse cx="408" cy="495.2884" fill="#84BE84" rx="3" ry="3" style="stroke:#038048;stroke-width:1;"/><text fill="#000000" font-family="sans-serif" font-size="14" lengthAdjust="spacing" textLength="198.5908" x="417" y="498.6351">_load_customers(): List[dict]</text><ellipse cx="408" cy="511.5853" fill="#84BE84" rx="3" ry="3" style="stroke:#038048;stroke-width:1;"/><text fill="#000000" font-family="sans-serif" font-size="14" lengthAdjust="spacing" textLength="169.709" x="417" y="514.932">_save_customers(): void</text></g><!--class CustomerRepYAML--><g id="elem_CustomerRepYAML"><rect codeLine="76" fill="#F1F1F1" height="80.5938" id="CustomerRepYAML" rx="2.5" ry="2.5" style="stroke:#181818;stroke-width:0.5;" width="224.5908" x="7" y="441.64"/><ellipse cx="48.7082" cy="457.64" fill="#ADD1B2" rx="11" ry="11" style="stroke:#181818;stroke-width:1;"/><path d="M51.677,463.2806 Q51.0988,463.5775 50.4582,463.7181 Q49.8176,463.8744 49.1145,463.8744 Q46.6145,463.8744 45.2863,462.2337 Q43.9738,460.5775 43.9738,457.4525 Q43.9738,454.3275 45.2863,452.6712 Q46.6145,451.015 49.1145,451.015 Q49.8176,451.015 50.4582,451.1712 Q51.1145,451.3275 51.677,451.6244 L51.677,454.3431 Q51.052,453.765 50.4582,453.4994 Q49.8645,453.2181 49.2395,453.2181 Q47.8957,453.2181 47.2082,454.2962 Q46.5207,455.3587 46.5207,457.4525 Q46.5207,459.5462 47.2082,460.6244 Q47.8957,461.6869 49.2395,461.6869 Q49.8645,461.6869 50.4582,461.4212 Q51.052,461.14 51.677,460.5619 L51.677,463.2806 Z " fill="#000000"/><text fill="#000000" font-family="sans-serif" font-size="14" lengthAdjust="spacing" textLength="133.2393" x="68.6434" y="462.4867">CustomerRepYAML</text><line style="stroke:#181818;stroke-width:0.5;" x1="8" x2="230.5908" y1="473.64" y2="473.64"/><line style="stroke:#181818;stroke-width:0.5;" x1="8" x2="230.5908" y1="481.64" y2="481.64"/><ellipse cx="18" cy="495.2884" fill="#84BE84" rx="3" ry="3" style="stroke:#038048;stroke-width:1;"/><text fill="#000000" font-family="sans-serif" font-size="14" lengthAdjust="spacing" textLength="198.5908" x="27" y="498.6351">_load_customers(): List[dict]</text><ellipse cx="18" cy="511.5853" fill="#84BE84" rx="3" ry="3" style="stroke:#038048;stroke-width:1;"/><text fill="#000000" font-family="sans-serif" font-size="14" lengthAdjust="spacing" textLength="169.709" x="27" y="514.932">_save_customers(): void</text></g><!--class Customer_rep_DB--><g id="elem_Customer_rep_DB"><rect codeLine="81" fill="#F1F1F1" height="162.0781" id="Customer_rep_DB" rx="2.5" ry="2.5" style="stroke:#181818;stroke-width:0.5;" width="1570.6689" x="561.96" y="39.59"/><ellipse cx="1280.2222" cy="55.59" fill="#ADD1B2" rx="11" ry="11" style="stroke:#181818;stroke-width:1;"/><path d="M1283.191,61.2306 Q1282.6128,61.5275 1281.9722,61.6681 Q1281.3316,61.8244 1280.6285,61.8244 Q1278.1285,61.8244 1276.8003,60.1837 Q1275.4878,58.5275 1275.4878,55.4025 Q1275.4878,52.2775 1276.8003,50.6212 Q1278.1285,48.965 1280.6285,48.965 Q1281.3316,48.965 1281.9722,49.1212 Q1282.6285,49.2775 1283.191,49.5744 L1283.191,52.2931 Q1282.566,51.715 1281.9722,51.4494 Q1281.3785,51.1681 1280.7535,51.1681 Q1279.4097,51.1681 1278.7222,52.2462 Q1278.0347,53.3087 1278.0347,55.4025 Q1278.0347,57.4962 1278.7222,58.5744 Q1279.4097,59.6369 1280.7535,59.6369 Q1281.3785,59.6369 1281.9722,59.3712 Q1282.566,59.09 1283.191,58.5119 L1283.191,61.2306 Z " fill="#000000"/><text fill="#000000" font-family="sans-serif" font-size="14" lengthAdjust="spacing" textLength="125.6445" x="1300.7222" y="60.4367">Customer_rep_DB</text><line style="stroke:#181818;stroke-width:0.5;" x1="562.96" x2="2131.6289" y1="71.59" y2="71.59"/><rect fill="#FFFFFF" fill-opacity="0.00000" height="6" style="stroke:#C82930;stroke-width:1;" width="6" x="569.96" y="82.2384"/><text fill="#000000" font-family="sans-serif" font-size="14" lengthAdjust="spacing" textLength="172.9561" x="581.96" y="88.5851">db: DatabaseConnection</text><line style="stroke:#181818;stroke-width:0.5;" x1="562.96" x2="2131.6289" y1="95.8869" y2="95.8869"/><ellipse cx="572.96" cy="109.5353" fill="#84BE84" rx="3" ry="3" style="stroke:#038048;stroke-width:1;"/><text fill="#000000" font-family="sans-serif" font-size="14" lengthAdjust="spacing" textLength="226.1123" x="581.96" y="112.882">get_by_id(customer_id: int): dict</text><ellipse cx="572.96" cy="125.8322" fill="#84BE84" rx="3" ry="3" style="stroke:#038048;stroke-width:1;"/><text fill="#000000" font-family="sans-serif" font-size="14" lengthAdjust="spacing" textLength="286.6787" x="581.96" y="129.1789">get_k_n_short_list(k: int, n: int): List[dict]</text><ellipse cx="572.96" cy="142.1291" fill="#84BE84" rx="3" ry="3" style="stroke:#038048;stroke-width:1;"/><text fill="#000000" font-family="sans-serif" font-size="14" lengthAdjust="spacing" textLength="1388.2969" x="581.96" y="145.4757">add_customer(first_name: string, last_name: string, phone_number: string, email: string = None, address: string = None, city: string = None, postal_code: string = None, country: string = None): int</text><ellipse cx="572.96" cy="158.4259" fill="#84BE84" rx="3" ry="3" style="stroke:#038048;stroke-width:1;"/><text fill="#000000" font-family="sans-serif" font-size="14" lengthAdjust="spacing" textLength="1544.6689" x="581.96" y="161.7726">update_customer(customer_id: int, first_name: string, last_name: string, phone_number: string, email: string = None, address: string = None, city: string = None, postal_code: string = None, country: string = None): void</text><ellipse cx="572.96" cy="174.7228" fill="#84BE84" rx="3" ry="3" style="stroke:#038048;stroke-width:1;"/><text fill="#000000" font-family="sans-serif" font-size="14" lengthAdjust="spacing" textLength="279.8701" x="581.96" y="178.0695">delete_customer(customer_id: int): void</text><ellipse cx="572.96" cy="191.0197" fill="#84BE84" rx="3" ry="3" style="stroke:#038048;stroke-width:1;"/><text fill="#000000" font-family="sans-serif" font-size="14" lengthAdjust="spacing" textLength="107.8301" x="581.96" y="194.3664">get_count(): int</text></g><!--class DatabaseConnection--><g id="elem_DatabaseConnection"><rect codeLine="92" fill="#F1F1F1" height="162.0781" id="DatabaseConnection" rx="2.5" ry="2.5" style="stroke:#181818;stroke-width:0.5;" width="870.5596" x="1222.02" y="400.89"/><ellipse cx="1580.042" cy="416.89" fill="#ADD1B2" rx="11" ry="11" style="stroke:#181818;stroke-width:1;"/><path d="M1583.0107,422.5306 Q1582.4326,422.8275 1581.792,422.9681 Q1581.1513,423.1244 1580.4482,423.1244 Q1577.9482,423.1244 1576.6201,421.4837 Q1575.3076,419.8275 1575.3076,416.7025 Q1575.3076,413.5775 1576.6201,411.9212 Q1577.9482,410.265 1580.4482,410.265 Q1581.1513,410.265 1581.792,410.4212 Q1582.4482,410.5775 1583.0107,410.8744 L1583.0107,413.5931 Q1582.3857,413.015 1581.792,412.7494 Q1581.1982,412.4681 1580.5732,412.4681 Q1579.2295,412.4681 1578.542,413.5462 Q1577.8545,414.6087 1577.8545,416.7025 Q1577.8545,418.7962 1578.542,419.8744 Q1579.2295,420.9369 1580.5732,420.9369 Q1581.1982,420.9369 1581.792,420.6712 Q1582.3857,420.39 1583.0107,419.8119 L1583.0107,422.5306 Z " fill="#000000"/><text fill="#000000" font-family="sans-serif" font-size="14" lengthAdjust="spacing" textLength="146.0156" x="1600.542" y="421.7367">DatabaseConnection</text><line style="stroke:#181818;stroke-width:0.5;" x1="1223.02" x2="2091.5796" y1="432.89" y2="432.89"/><rect fill="#FFFFFF" fill-opacity="0.00000" height="6" style="stroke:#C82930;stroke-width:1;" width="6" x="1230.02" y="443.5384"/><text fill="#000000" font-family="sans-serif" font-size="14" lengthAdjust="spacing" textLength="221.4912" x="1242.02" y="449.8851">_instance: DatabaseConnection</text><rect fill="#FFFFFF" fill-opacity="0.00000" height="6" style="stroke:#C82930;stroke-width:1;" width="6" x="1230.02" y="459.8353"/><text fill="#000000" font-family="sans-serif" font-size="14" lengthAdjust="spacing" textLength="192.1719" x="1242.02" y="466.182">conn: psycopg2.connection</text><rect fill="#FFFFFF" fill-opacity="0.00000" height="6" style="stroke:#C82930;stroke-width:1;" width="6" x="1230.02" y="476.1322"/><text fill="#000000" font-family="sans-serif" font-size="14" lengthAdjust="spacing" textLength="147.2939" x="1242.02" y="482.4789">cur: psycopg2.cursor</text><line style="stroke:#181818;stroke-width:0.5;" x1="1223.02" x2="2091.5796" y1="489.7806" y2="489.7806"/><ellipse cx="1233.02" cy="503.4291" fill="#84BE84" rx="3" ry="3" style="stroke:#038048;stroke-width:1;"/><text fill="#000000" font-family="sans-serif" font-size="14" lengthAdjust="spacing" textLength="844.5596" x="1242.02" y="506.7757">__new__(dbname: string, user: string, password: string, host: string = 'localhost', port: int = 5432): DatabaseConnection</text><ellipse cx="1233.02" cy="519.7259" fill="#84BE84" rx="3" ry="3" style="stroke:#038048;stroke-width:1;"/><text fill="#000000" font-family="sans-serif" font-size="14" lengthAdjust="spacing" textLength="492.9668" x="1242.02" y="523.0726">execute_query(query: string, params: tuple = None): psycopg2.cursor</text><ellipse cx="1233.02" cy="536.0228" fill="#84BE84" rx="3" ry="3" style="stroke:#038048;stroke-width:1;"/><text fill="#000000" font-family="sans-serif" font-size="14" lengthAdjust="spacing" textLength="102.6348" x="1242.02" y="539.3695">commit(): void</text><ellipse cx="1233.02" cy="552.3197" fill="#84BE84" rx="3" ry="3" style="stroke:#038048;stroke-width:1;"/><text fill="#000000" font-family="sans-serif" font-size="14" lengthAdjust="spacing" textLength="85.7773" x="1242.02" y="555.6664">close(): void</text></g><!--reverse link CustomerShortInfo to Customer--><g id="link_CustomerShortInfo_Customer"><path codeLine="104" d="M856.3,670.94 C856.3,690.57 856.3,692.88 856.3,713.25 " fill="#FFFFFF" fill-opacity="0.00000" id="CustomerShortInfo-backto-Customer" style="stroke:#181818;stroke-width:1;"/><polygon fill="#FFFFFF" fill-opacity="0.00000" points="856.3,652.94,850.3,670.94,862.3,670.94,856.3,652.94" style="stroke:#181818;stroke-width:1;"/></g><!--reverse link CustomerRepBase to CustomerRepJSON--><g id="link_CustomerRepBase_CustomerRepJSON"><path codeLine="105" d="M375.5573,249.9084 C416.4173,320.4984 457.58,391.6 486.26,441.14 " fill="#FFFFFF" fill-opacity="0.00000" id="CustomerRepBase-backto-CustomerRepJSON" style="stroke:#181818;stroke-width:1;"/><polygon fill="#FFFFFF" fill-opacity="0.00000" points="366.54,234.33,370.3645,252.9142,380.7502,246.9026,366.54,234.33" style="stroke:#181818;stroke-width:1;"/></g><!--reverse link CustomerRepBase to CustomerRepYAML--><g id="link_CustomerRepBase_CustomerRepYAML"><path codeLine="106" d="M236.0756,250.3872 C200.3156,320.9772 164.54,391.6 139.45,441.14 " fill="#FFFFFF" fill-opacity="0.00000" id="CustomerRepBase-backto-CustomerRepYAML" style="stroke:#181818;stroke-width:1;"/><polygon fill="#FFFFFF" fill-opacity="0.00000" points="244.21,234.33,230.7233,247.6757,241.428,253.0986,244.21,234.33" style="stroke:#181818;stroke-width:1;"/></g><!--link CustomerRepBase to Customer--><g id="link_CustomerRepBase_Customer"><path codeLine="109" d="M274.77,234.5 C254.49,348.58 241.47,525.66 318.3,652.6 C396.2,781.33 544.5841,858.2017 667.9341,903.2517 " fill="#FFFFFF" fill-opacity="0.00000" id="CustomerRepBase-to-Customer" style="stroke:#181818;stroke-width:1;"/><polygon fill="#181818" points="673.57,905.31,666.4884,898.4652,668.8734,903.5947,663.7439,905.9797,673.57,905.31" style="stroke:#181818;stroke-width:1;"/><text fill="#000000" font-family="sans-serif" font-size="13" lengthAdjust="spacing" textLength="59.8584" x="319.3" y="486.4969">manages</text><text fill="#000000" font-family="sans-serif" font-size="13" lengthAdjust="spacing" textLength="8.271" x="264.8231" y="254.3462">1</text><text fill="#000000" font-family="sans-serif" font-size="13" lengthAdjust="spacing" textLength="23.0356" x="642.9839" y="900.0436">0..*</text></g><!--link CustomerRepBase to CustomerShortInfo--><g id="link_CustomerRepBase_CustomerShortInfo"><path codeLine="110" d="M514.32,234.62 C556.44,258.78 599.81,284.97 639.3,311.26 C644.87,314.97 645.5478,315.3634 651.1778,319.2634 " fill="#FFFFFF" fill-opacity="0.00000" id="CustomerRepBase-to-CustomerShortInfo" style="stroke:#181818;stroke-width:1;"/><polygon fill="#181818" points="656.11,322.68,650.9894,314.2669,651.9998,319.8328,646.4339,320.8432,656.11,322.68" style="stroke:#181818;stroke-width:1;"/><text fill="#000000" font-family="sans-serif" font-size="13" lengthAdjust="spacing" textLength="59.8584" x="587.3" y="277.3269">manages</text><text fill="#000000" font-family="sans-serif" font-size="13" lengthAdjust="spacing" textLength="8.271" x="519.7193" y="254.4739">1</text><text fill="#000000" font-family="sans-serif" font-size="13" lengthAdjust="spacing" textLength="23.0356" x="625.5033" y="313.7566">0..*</text></g><!--link Customer_rep_DB to DatabaseConnection--><g id="link_Customer_rep_DB_DatabaseConnection"><path codeLine="111" d="M1416.48,201.82 C1467.6,261.07 1533.0004,336.8673 1584.1404,396.1373 " fill="#FFFFFF" fill-opacity="0.00000" id="Customer_rep_DB-to-DatabaseConnection" style="stroke:#181818;stroke-width:1;"/><polygon fill="#181818" points="1588.06,400.68,1585.2091,391.2528,1584.7936,396.8944,1579.1521,396.479,1588.06,400.68" style="stroke:#181818;stroke-width:1;"/><text fill="#000000" font-family="sans-serif" font-size="13" lengthAdjust="spacing" textLength="29.7832" x="1485.3" y="277.3269">uses</text><text fill="#000000" font-family="sans-serif" font-size="13" lengthAdjust="spacing" textLength="8.271" x="1414.2977" y="221.7918">1</text><text fill="#000000" font-family="sans-serif" font-size="13" lengthAdjust="spacing" textLength="8.271" x="1573.5491" y="389.8486">1</text></g><!--link Customer_rep_DB to Customer--><g id="link_Customer_rep_DB_Customer"><path codeLine="112" d="M1236.63,201.96 C1201.85,232.48 1166.51,269.95 1143.3,311.26 C1067.41,446.26 1135.18,510.64 1073.3,652.6 C1063.45,675.19 1054.7474,692.5781 1041.9574,714.6581 " fill="#FFFFFF" fill-opacity="0.00000" id="Customer_rep_DB-to-Customer" style="stroke:#181818;stroke-width:1;"/><polygon fill="#181818" points="1038.95,719.85,1046.9224,714.0672,1041.4562,715.5235,1039.9999,710.0573,1038.95,719.85" style="stroke:#181818;stroke-width:1;"/><text fill="#000000" font-family="sans-serif" font-size="13" lengthAdjust="spacing" textLength="59.8584" x="1144.3" y="486.4969">manages</text><text fill="#000000" font-family="sans-serif" font-size="13" lengthAdjust="spacing" textLength="8.271" x="1218.7877" y="221.6665">1</text><text fill="#000000" font-family="sans-serif" font-size="13" lengthAdjust="spacing" textLength="23.0356" x="1046.535" y="707.3391">0..*</text></g><!--link Customer_rep_DB to CustomerShortInfo--><g id="link_Customer_rep_DB_CustomerShortInfo"><path codeLine="113" d="M1140.45,202.14 C1105.13,220.09 1069.99,240.85 1039.3,264.26 C1021.09,278.15 1007.6747,289.8596 991.0147,306.7396 " fill="#FFFFFF" fill-opacity="0.00000" id="Customer_rep_DB-to-CustomerShortInfo" style="stroke:#181818;stroke-width:1;"/><polygon fill="#181818" points="986.8,311.01,995.969,307.4142,990.3123,307.4514,990.2752,301.7946,986.8,311.01" style="stroke:#181818;stroke-width:1;"/><text fill="#000000" font-family="sans-serif" font-size="13" lengthAdjust="spacing" textLength="59.8584" x="1040.3" y="277.3269">manages</text><text fill="#000000" font-family="sans-serif" font-size="13" lengthAdjust="spacing" textLength="8.271" x="1114.3422" y="221.862">1</text><text fill="#000000" font-family="sans-serif" font-size="13" lengthAdjust="spacing" textLength="23.0356" x="969.1933" y="299.9952">0..*</text></g><!--SRC=[rLVTJXGn5BxVfsYuOP1TegWt6pKHkD4W9d9bZ9bqPxhio4mxJ3iWKHEvyTeNq6SW1XAYKLzXU2DFEt_zWqNK2qbsbktvJlkTSxwUJXTHzRdwUVw-EgrEuFCDFj-hi-eKLL_Xn_7vqVbHzQFwCXYifvXpj5vomJ9IRCzO8HxHAKDl1WZ-Hb5Z29DuZ18gwj5fKd0HKfoHCUAYIEXEFGvp-ORp6QCaf6Ks8KLdKQRbQS6oi1u9OYom_B-5B8rTNhNNFauJG1DW5TWCmMl2M6e19Qb0P-Q7wKm37st3ROU8K5i-MEfJf6nzcgH9ouYoTido6GqYbZta0F17li-Ik0PnStstOWwwv-EKqS5U9K-z1zaBc9X9erDF8v_WgiNwpXPdgqcIuIGr5ORZk22ScuDH8Wuj8J8kS1f6BBOK6h6IYi92AqMyOWaba5_vOs2fHH4933eNg8zH0EVYi9KwMCfvKkov1XxUVYUDSk3GDrokj_6aDEkeFPfjYl3RMfTryku1BGC-jxfcFfEU1ilCkmZikfaARuEnbENW57bTQUvUcLj8QyOcBakJ3cvUhJMqS7e8btKD4oYiRN4tQwiRPqC-8_aQvgJTbzCa1TbYCRFsLeE676ucNBo8aqYyRBPIc38STprKIKV3DDqExnCJqaScYpqvlA0PFir5mYXEzTcamsv8mph-5DOATXL-Y6ZhPpFW4WghJ1EIne5wgWWD9g2JZcHFHkuiA0ZCPO3BN1NCnJVaXwX6n1TD49EKN3Q1aoGbflQ0yXNoyVRJhQQGVr8LtzJF7pxP_1TJXmN9musrLdxnP8ms85qJaEGwevH4ilo3AmX5BdvzUHYLTy_P8NAEqo7o7Pb3P7GaT1zj0MY8h0xKZUjDfnlqD9ZUmMmepRZ-qZ9Vb_zbV7zztxWoQqK8BHK8qeXujTYyQr3GKiuF8vRlhAv4jhaiT6jPGFjfksL8oK4O1l74p7R9zIpdmF205N4_CeEaQLbPJ5c4KpcuA1DQ21KT6ExUkRswT27nPVAQH2LaRwyaS3offxvgWJCeeYZpbFIfjmDH4qKion9XTl8ePPpeUtqHLP_aHKNTNKxaPQKwhkym0_UsSk_jQDJrXO5zFXdMfjVD1SckfLXyh2zBvnzWxMFrF7ES5sujeD7e0LgukR9oOw5_OnsZ35EyG_XLFVgGNDUsttMkyErHubZguHAlkHJdU7We_W80]--></g></svg>
