<svg xmlns="http://www.w3.org/2000/svg" xmlns:xlink="http://www.w3.org/1999/xlink" contentStyleType="text/css" data-diagram-type="CLASS" height="903px" preserveAspectRatio="none" style="width:427px;height:903px;background:#FFFFFF;" version="1.1" viewBox="0 0 427 903" width="427px" zoomAndPan="magnify"><defs/><g><!--class CustomerShortInfo--><g id="elem_CustomerShortInfo"><rect codeLine="3" fill="#F1F1F1" height="341.3438" id="CustomerShortInfo" rx="2.5" ry="2.5" style="stroke:#181818;stroke-width:0.5;" width="413.4678" x="7" y="7"/><ellipse cx="143.4487" cy="23" fill="#ADD1B2" rx="11" ry="11" style="stroke:#181818;stroke-width:1;"/><path d="M146.4175,28.6406 Q145.8394,28.9375 145.1987,29.0781 Q144.5581,29.2344 143.855,29.2344 Q141.355,29.2344 140.0269,27.5938 Q138.7144,25.9375 138.7144,22.8125 Q138.7144,19.6875 140.0269,18.0313 Q141.355,16.375 143.855,16.375 Q144.5581,16.375 145.1987,16.5313 Q145.855,16.6875 146.4175,16.9844 L146.4175,19.7031 Q145.7925,19.125 145.1987,18.8594 Q144.605,18.5781 143.98,18.5781 Q142.6362,18.5781 141.9487,19.6563 Q141.2612,20.7188 141.2612,22.8125 Q141.2612,24.9063 141.9487,25.9844 Q142.6362,27.0469 143.98,27.0469 Q144.605,27.0469 145.1987,26.7813 Q145.7925,26.5 146.4175,25.9219 L146.4175,28.6406 Z " fill="#000000"/><text fill="#000000" font-family="sans-serif" font-size="14" lengthAdjust="spacing" textLength="132.0703" x="163.9487" y="27.8467">CustomerShortInfo</text><line style="stroke:#181818;stroke-width:0.5;" x1="8" x2="419.4678" y1="39" y2="39"/><rect fill="none" height="6" style="stroke:#C82930;stroke-width:1;" width="6" x="15" y="49.6484"/><text fill="#000000" font-family="sans-serif" font-size="14" lengthAdjust="spacing" textLength="113.1211" x="27" y="55.9951">customer_id: int</text><rect fill="none" height="6" style="stroke:#C82930;stroke-width:1;" width="6" x="15" y="65.9453"/><text fill="#000000" font-family="sans-serif" font-size="14" lengthAdjust="spacing" textLength="123.416" x="27" y="72.292">first_name: string</text><rect fill="none" height="6" style="stroke:#C82930;stroke-width:1;" width="6" x="15" y="82.2422"/><text fill="#000000" font-family="sans-serif" font-size="14" lengthAdjust="spacing" textLength="121.3105" x="27" y="88.5889">last_name: string</text><rect fill="none" height="6" style="stroke:#C82930;stroke-width:1;" width="6" x="15" y="98.5391"/><text fill="#000000" font-family="sans-serif" font-size="14" lengthAdjust="spacing" textLength="154.8066" x="27" y="104.8857">phone_number: string</text><line style="stroke:#181818;stroke-width:0.5;" x1="8" x2="419.4678" y1="112.1875" y2="112.1875"/><rect fill="#F24D5C" height="6" style="stroke:#C82930;stroke-width:1;" width="6" x="15" y="122.8359"/><text fill="#000000" font-family="sans-serif" font-size="14" lengthAdjust="spacing" textLength="338.666" x="27" y="129.1826">from_string(data_str: string): CustomerShortInfo</text><rect fill="#F24D5C" height="6" style="stroke:#C82930;stroke-width:1;" width="6" x="15" y="139.1328"/><text fill="#000000" font-family="sans-serif" font-size="14" lengthAdjust="spacing" textLength="253.1074" x="27" y="145.4795">__validate_id(customer_id: int): bool</text><rect fill="#F24D5C" height="6" style="stroke:#C82930;stroke-width:1;" width="6" x="15" y="155.4297"/><text fill="#000000" font-family="sans-serif" font-size="14" lengthAdjust="spacing" textLength="255.9717" x="27" y="161.7764">__validate_name(name: string): bool</text><rect fill="#F24D5C" height="6" style="stroke:#C82930;stroke-width:1;" width="6" x="15" y="171.7266"/><text fill="#000000" font-family="sans-serif" font-size="14" lengthAdjust="spacing" textLength="387.4678" x="27" y="178.0732">__validate_phone_number(phone_number: string): bool</text><ellipse cx="18" cy="191.0234" fill="#84BE84" rx="3" ry="3" style="stroke:#038048;stroke-width:1;"/><text fill="#000000" font-family="sans-serif" font-size="14" lengthAdjust="spacing" textLength="154.0342" x="27" y="194.3701">get_customer_id(): int</text><ellipse cx="18" cy="207.3203" fill="#84BE84" rx="3" ry="3" style="stroke:#038048;stroke-width:1;"/><text fill="#000000" font-family="sans-serif" font-size="14" lengthAdjust="spacing" textLength="164.3291" x="27" y="210.667">get_first_name(): string</text><ellipse cx="18" cy="223.6172" fill="#84BE84" rx="3" ry="3" style="stroke:#038048;stroke-width:1;"/><text fill="#000000" font-family="sans-serif" font-size="14" lengthAdjust="spacing" textLength="162.2236" x="27" y="226.9639">get_last_name(): string</text><ellipse cx="18" cy="239.9141" fill="#84BE84" rx="3" ry="3" style="stroke:#038048;stroke-width:1;"/><text fill="#000000" font-family="sans-serif" font-size="14" lengthAdjust="spacing" textLength="195.7197" x="27" y="243.2607">get_phone_number(): string</text><ellipse cx="18" cy="256.2109" fill="#84BE84" rx="3" ry="3" style="stroke:#038048;stroke-width:1;"/><text fill="#000000" font-family="sans-serif" font-size="14" lengthAdjust="spacing" textLength="214.4092" x="27" y="259.5576">_set_id(customer_id: ing): void</text><ellipse cx="18" cy="272.5078" fill="#84BE84" rx="3" ry="3" style="stroke:#038048;stroke-width:1;"/><text fill="#000000" font-family="sans-serif" font-size="14" lengthAdjust="spacing" textLength="275.5908" x="27" y="275.8545">set_first_name(first_name: string): void</text><ellipse cx="18" cy="288.8047" fill="#84BE84" rx="3" ry="3" style="stroke:#038048;stroke-width:1;"/><text fill="#000000" font-family="sans-serif" font-size="14" lengthAdjust="spacing" textLength="271.3799" x="27" y="292.1514">set_last_name(last_name: string): void</text><ellipse cx="18" cy="305.1016" fill="#84BE84" rx="3" ry="3" style="stroke:#038048;stroke-width:1;"/><text fill="#000000" font-family="sans-serif" font-size="14" lengthAdjust="spacing" textLength="338.3721" x="27" y="308.4482">set_phone_number(phone_number: string): void</text><ellipse cx="18" cy="321.3984" fill="#84BE84" rx="3" ry="3" style="stroke:#038048;stroke-width:1;"/><text fill="#000000" font-family="sans-serif" font-size="14" lengthAdjust="spacing" textLength="274.0322" x="27" y="324.7451">__eq__(other: CustomerShortInfo): bool</text><ellipse cx="18" cy="337.6953" fill="#84BE84" rx="3" ry="3" style="stroke:#038048;stroke-width:1;"/><text fill="#000000" font-family="sans-serif" font-size="14" lengthAdjust="spacing" textLength="106.8184" x="27" y="341.042">__str__(): string</text></g><!--class Customer--><g id="elem_Customer"><rect codeLine="26" fill="#F1F1F1" height="488.0156" id="Customer" rx="2.5" ry="2.5" style="stroke:#181818;stroke-width:0.5;" width="369.499" x="28.98" y="408.34"/><ellipse cx="175.4776" cy="424.34" fill="#ADD1B2" rx="11" ry="11" style="stroke:#181818;stroke-width:1;"/><path d="M178.4463,429.9806 Q177.8682,430.2775 177.2276,430.4181 Q176.5869,430.5744 175.8838,430.5744 Q173.3838,430.5744 172.0557,428.9338 Q170.7432,427.2775 170.7432,424.1525 Q170.7432,421.0275 172.0557,419.3713 Q173.3838,417.715 175.8838,417.715 Q176.5869,417.715 177.2276,417.8713 Q177.8838,418.0275 178.4463,418.3244 L178.4463,421.0431 Q177.8213,420.465 177.2276,420.1994 Q176.6338,419.9181 176.0088,419.9181 Q174.6651,419.9181 173.9776,420.9963 Q173.2901,422.0588 173.2901,424.1525 Q173.2901,426.2463 173.9776,427.3244 Q174.6651,428.3869 176.0088,428.3869 Q176.6338,428.3869 177.2276,428.1213 Q177.8213,427.84 178.4463,427.2619 L178.4463,429.9806 Z " fill="#000000"/><text fill="#000000" font-family="sans-serif" font-size="14" lengthAdjust="spacing" textLength="68.0039" x="195.9776" y="429.1867">Customer</text><line style="stroke:#181818;stroke-width:0.5;" x1="29.98" x2="397.479" y1="440.34" y2="440.34"/><rect fill="none" height="6" style="stroke:#C82930;stroke-width:1;" width="6" x="36.98" y="450.9884"/><text fill="#000000" font-family="sans-serif" font-size="14" lengthAdjust="spacing" textLength="87.9648" x="48.98" y="457.3351">email: string</text><rect fill="none" height="6" style="stroke:#C82930;stroke-width:1;" width="6" x="36.98" y="467.2853"/><text fill="#000000" font-family="sans-serif" font-size="14" lengthAdjust="spacing" textLength="104.665" x="48.98" y="473.632">address: string</text><rect fill="none" height="6" style="stroke:#C82930;stroke-width:1;" width="6" x="36.98" y="483.5822"/><text fill="#000000" font-family="sans-serif" font-size="14" lengthAdjust="spacing" textLength="74.7168" x="48.98" y="489.9289">city: string</text><rect fill="none" height="6" style="stroke:#C82930;stroke-width:1;" width="6" x="36.98" y="499.8791"/><text fill="#000000" font-family="sans-serif" font-size="14" lengthAdjust="spacing" textLength="132.8223" x="48.98" y="506.2257">postal_code: string</text><rect fill="none" height="6" style="stroke:#C82930;stroke-width:1;" width="6" x="36.98" y="516.1759"/><text fill="#000000" font-family="sans-serif" font-size="14" lengthAdjust="spacing" textLength="102.8945" x="48.98" y="522.5226">country: string</text><rect fill="none" height="6" style="stroke:#C82930;stroke-width:1;" width="6" x="36.98" y="532.4728"/><text fill="#000000" font-family="sans-serif" font-size="14" lengthAdjust="spacing" textLength="122.0215" x="48.98" y="538.8195">date_joined: date</text><line style="stroke:#181818;stroke-width:0.5;" x1="29.98" x2="397.479" y1="546.1213" y2="546.1213"/><rect fill="#F24D5C" height="6" style="stroke:#C82930;stroke-width:1;" width="6" x="36.98" y="556.7697"/><text fill="#000000" font-family="sans-serif" font-size="14" lengthAdjust="spacing" textLength="253.7842" x="48.98" y="563.1164">__validate_email(email: string): bool</text><rect fill="#F24D5C" height="6" style="stroke:#C82930;stroke-width:1;" width="6" x="36.98" y="573.0666"/><text fill="#000000" font-family="sans-serif" font-size="14" lengthAdjust="spacing" textLength="340.2178" x="48.98" y="579.4132">__validate_non_empty_string(value: string): bool</text><rect fill="#F24D5C" height="6" style="stroke:#C82930;stroke-width:1;" width="6" x="36.98" y="589.3634"/><text fill="#000000" font-family="sans-serif" font-size="14" lengthAdjust="spacing" textLength="343.499" x="48.98" y="595.7101">__validate_postal_code(postal_code: string): bool</text><rect fill="#F24D5C" height="6" style="stroke:#C82930;stroke-width:1;" width="6" x="36.98" y="605.6603"/><text fill="#000000" font-family="sans-serif" font-size="14" lengthAdjust="spacing" textLength="325.8008" x="48.98" y="612.007">__validate_date_joined(date_joined: date) bool</text><rect fill="#F24D5C" height="6" style="stroke:#C82930;stroke-width:1;" width="6" x="36.98" y="621.9572"/><text fill="#000000" font-family="sans-serif" font-size="14" lengthAdjust="spacing" textLength="338.666" x="48.98" y="628.3039">from_string(data_str: string): CustomerShortInfo</text><ellipse cx="39.98" cy="641.2541" fill="#84BE84" rx="3" ry="3" style="stroke:#038048;stroke-width:1;"/><text fill="#000000" font-family="sans-serif" font-size="14" lengthAdjust="spacing" textLength="128.8779" x="48.98" y="644.6007">get_email(): string</text><ellipse cx="39.98" cy="657.5509" fill="#84BE84" rx="3" ry="3" style="stroke:#038048;stroke-width:1;"/><text fill="#000000" font-family="sans-serif" font-size="14" lengthAdjust="spacing" textLength="145.5781" x="48.98" y="660.8976">get_address(): string</text><ellipse cx="39.98" cy="673.8478" fill="#84BE84" rx="3" ry="3" style="stroke:#038048;stroke-width:1;"/><text fill="#000000" font-family="sans-serif" font-size="14" lengthAdjust="spacing" textLength="162.2236" x="48.98" y="677.1945">get_last_name(): string</text><ellipse cx="39.98" cy="690.1447" fill="#84BE84" rx="3" ry="3" style="stroke:#038048;stroke-width:1;"/><text fill="#000000" font-family="sans-serif" font-size="14" lengthAdjust="spacing" textLength="115.6299" x="48.98" y="693.4914">get_city(): string</text><ellipse cx="39.98" cy="706.4416" fill="#84BE84" rx="3" ry="3" style="stroke:#038048;stroke-width:1;"/><text fill="#000000" font-family="sans-serif" font-size="14" lengthAdjust="spacing" textLength="173.7354" x="48.98" y="709.7882">get_postal_code(): string</text><ellipse cx="39.98" cy="722.7384" fill="#84BE84" rx="3" ry="3" style="stroke:#038048;stroke-width:1;"/><text fill="#000000" font-family="sans-serif" font-size="14" lengthAdjust="spacing" textLength="143.8076" x="48.98" y="726.0851">get_country(): string</text><ellipse cx="39.98" cy="739.0353" fill="#84BE84" rx="3" ry="3" style="stroke:#038048;stroke-width:1;"/><text fill="#000000" font-family="sans-serif" font-size="14" lengthAdjust="spacing" textLength="171.5547" x="48.98" y="742.382">get_date_joined(): string</text><ellipse cx="39.98" cy="755.3322" fill="#84BE84" rx="3" ry="3" style="stroke:#038048;stroke-width:1;"/><text fill="#000000" font-family="sans-serif" font-size="14" lengthAdjust="spacing" textLength="204.6885" x="48.98" y="758.6789">set_email(email: string): void</text><ellipse cx="39.98" cy="771.6291" fill="#84BE84" rx="3" ry="3" style="stroke:#038048;stroke-width:1;"/><text fill="#000000" font-family="sans-serif" font-size="14" lengthAdjust="spacing" textLength="238.0889" x="48.98" y="774.9757">set_address(address: string): void</text><ellipse cx="39.98" cy="787.9259" fill="#84BE84" rx="3" ry="3" style="stroke:#038048;stroke-width:1;"/><text fill="#000000" font-family="sans-serif" font-size="14" lengthAdjust="spacing" textLength="178.1924" x="48.98" y="791.2726">set_city(city: string): void</text><ellipse cx="39.98" cy="804.2228" fill="#84BE84" rx="3" ry="3" style="stroke:#038048;stroke-width:1;"/><text fill="#000000" font-family="sans-serif" font-size="14" lengthAdjust="spacing" textLength="294.4033" x="48.98" y="807.5695">set_postal_code(postal_code: string): void</text><ellipse cx="39.98" cy="820.5197" fill="#84BE84" rx="3" ry="3" style="stroke:#038048;stroke-width:1;"/><text fill="#000000" font-family="sans-serif" font-size="14" lengthAdjust="spacing" textLength="234.5479" x="48.98" y="823.8664">set_country(country: string): void</text><ellipse cx="39.98" cy="836.8166" fill="#84BE84" rx="3" ry="3" style="stroke:#038048;stroke-width:1;"/><text fill="#000000" font-family="sans-serif" font-size="14" lengthAdjust="spacing" textLength="281.4219" x="48.98" y="840.1632">set_date_joined(date_joined: date): void</text><ellipse cx="39.98" cy="853.1134" fill="#84BE84" rx="3" ry="3" style="stroke:#038048;stroke-width:1;"/><text fill="#000000" font-family="sans-serif" font-size="14" lengthAdjust="spacing" textLength="106.8184" x="48.98" y="856.4601">__str__(): string</text><ellipse cx="39.98" cy="869.4103" fill="#84BE84" rx="3" ry="3" style="stroke:#038048;stroke-width:1;"/><text fill="#000000" font-family="sans-serif" font-size="14" lengthAdjust="spacing" textLength="129.5137" x="48.98" y="872.757">short_info(): string</text><ellipse cx="39.98" cy="885.7072" fill="#84BE84" rx="3" ry="3" style="stroke:#038048;stroke-width:1;"/><text fill="#000000" font-family="sans-serif" font-size="14" lengthAdjust="spacing" textLength="209.9658" x="48.98" y="889.0539">__eq__(other: Customer): bool</text></g><!--reverse link CustomerShortInfo to Customer--><g id="link_CustomerShortInfo_Customer"><path codeLine="1" d="M213.73,366.65 C213.73,385.97 213.73,387.94 213.73,407.97 " fill="none" id="CustomerShortInfo-backto-Customer" style="stroke:#181818;stroke-width:1;"/><polygon fill="none" points="213.73,348.65,207.73,366.65,219.73,366.65,213.73,348.65" style="stroke:#181818;stroke-width:1;"/></g><!--SRC=[bLD9RiCm3Bph5JxACFm1exUSUku32CLM4XMsc4foWA3DtojvqsQawSqYX-QGCpoCsk30rSS5bNcN9opUVkgwE2nXGWuzqtfxRx1lGkfs2OBeca98G-gJKDg0P0Dl2csKa6TIs_eqTBsWv237uSZL5hNL2WUONxHZXhdlDLqsEGTI0znOBooMMmuqvMDhZeXz17D4QCXc3nJoetjarwBgp0q4RMavBsAA-sMuy3BbbDbMaYQYna4Ej4tc4peUDnGTgNJSBzSXGlh-cJWHxfKzp6W0_WL0qLnSCbDgsnSuJItGp_P8BUQSnGScUkyNrdMAQ-q3hJ3tm4we3UkXnIxmM8kZD2f0JSf-ef3SxiuzIAJvr996ZNVzWz92h-Q-6jLcnkTcykpe3jEzae0gpMYN2_xVrp8vR1upiTsotvTjwjQVMJSOCuNFKgJXSCeWfJUMgHZUc2lXn1WHPY8P6YMszf-g17zQ-2UMYZ3F9VDdajg_qauV45QWwE1txsdr2ddy0W00]--></g></svg>
