<svg xmlns="http://www.w3.org/2000/svg" xmlns:xlink="http://www.w3.org/1999/xlink" contentStyleType="text/css" data-diagram-type="CLASS" height="1001px" preserveAspectRatio="none" style="width:427px;height:1001px;background:#FFFFFF;" version="1.1" viewBox="0 0 427 1001" width="427px" zoomAndPan="magnify"><defs/><g><!--class CustomerShortInfo--><g id="elem_CustomerShortInfo"><rect codeLine="3" fill="#F1F1F1" height="390.2344" id="CustomerShortInfo" rx="2.5" ry="2.5" style="stroke:#181818;stroke-width:0.5;" width="364.666" x="31.4" y="7"/><ellipse cx="143.4479" cy="23" fill="#ADD1B2" rx="11" ry="11" style="stroke:#181818;stroke-width:1;"/><path d="M146.4166,28.6406 Q145.8385,28.9375 145.1979,29.0781 Q144.5572,29.2344 143.8541,29.2344 Q141.3541,29.2344 140.026,27.5938 Q138.7135,25.9375 138.7135,22.8125 Q138.7135,19.6875 140.026,18.0313 Q141.3541,16.375 143.8541,16.375 Q144.5572,16.375 145.1979,16.5313 Q145.8541,16.6875 146.4166,16.9844 L146.4166,19.7031 Q145.7916,19.125 145.1979,18.8594 Q144.6041,18.5781 143.9791,18.5781 Q142.6354,18.5781 141.9479,19.6563 Q141.2604,20.7188 141.2604,22.8125 Q141.2604,24.9063 141.9479,25.9844 Q142.6354,27.0469 143.9791,27.0469 Q144.6041,27.0469 145.1979,26.7813 Q145.7916,26.5 146.4166,25.9219 L146.4166,28.6406 Z " fill="#000000"/><text fill="#000000" font-family="sans-serif" font-size="14" lengthAdjust="spacing" textLength="132.0703" x="163.9479" y="27.8467">CustomerShortInfo</text><line style="stroke:#181818;stroke-width:0.5;" x1="32.4" x2="395.066" y1="39" y2="39"/><rect fill="none" height="6" style="stroke:#C82930;stroke-width:1;" width="6" x="39.4" y="49.6484"/><text fill="#000000" font-family="sans-serif" font-size="14" lengthAdjust="spacing" textLength="113.1211" x="51.4" y="55.9951">customer_id: int</text><rect fill="none" height="6" style="stroke:#C82930;stroke-width:1;" width="6" x="39.4" y="65.9453"/><text fill="#000000" font-family="sans-serif" font-size="14" lengthAdjust="spacing" textLength="123.416" x="51.4" y="72.292">first_name: string</text><rect fill="none" height="6" style="stroke:#C82930;stroke-width:1;" width="6" x="39.4" y="82.2422"/><text fill="#000000" font-family="sans-serif" font-size="14" lengthAdjust="spacing" textLength="121.3105" x="51.4" y="88.5889">last_name: string</text><rect fill="none" height="6" style="stroke:#C82930;stroke-width:1;" width="6" x="39.4" y="98.5391"/><text fill="#000000" font-family="sans-serif" font-size="14" lengthAdjust="spacing" textLength="87.9648" x="51.4" y="104.8857">email: string</text><line style="stroke:#181818;stroke-width:0.5;" x1="32.4" x2="395.066" y1="112.1875" y2="112.1875"/><rect fill="#F24D5C" height="6" style="stroke:#C82930;stroke-width:1;" width="6" x="39.4" y="122.8359"/><text fill="#000000" font-family="sans-serif" font-size="14" lengthAdjust="spacing" textLength="338.666" x="51.4" y="129.1826">from_string(data_str: string): CustomerShortInfo</text><rect fill="#F24D5C" height="6" style="stroke:#C82930;stroke-width:1;" width="6" x="39.4" y="139.1328"/><text fill="#000000" font-family="sans-serif" font-size="14" lengthAdjust="spacing" textLength="253.1074" x="51.4" y="145.4795">__validate_id(customer_id: int): bool</text><rect fill="#F24D5C" height="6" style="stroke:#C82930;stroke-width:1;" width="6" x="39.4" y="155.4297"/><text fill="#000000" font-family="sans-serif" font-size="14" lengthAdjust="spacing" textLength="255.9717" x="51.4" y="161.7764">__validate_name(name: string): bool</text><rect fill="#F24D5C" height="6" style="stroke:#C82930;stroke-width:1;" width="6" x="39.4" y="171.7266"/><text fill="#000000" font-family="sans-serif" font-size="14" lengthAdjust="spacing" textLength="253.7842" x="51.4" y="178.0732">__validate_email(email: string): bool</text><text fill="#000000" font-family="sans-serif" font-size="14" lengthAdjust="spacing" textLength="4.4502" x="51.4" y="194.3701">&#160;</text><ellipse cx="42.4" cy="207.3203" fill="#84BE84" rx="3" ry="3" style="stroke:#038048;stroke-width:1;"/><text fill="#000000" font-family="sans-serif" font-size="14" lengthAdjust="spacing" textLength="154.0342" x="51.4" y="210.667">get_customer_id(): int</text><ellipse cx="42.4" cy="223.6172" fill="#84BE84" rx="3" ry="3" style="stroke:#038048;stroke-width:1;"/><text fill="#000000" font-family="sans-serif" font-size="14" lengthAdjust="spacing" textLength="164.3291" x="51.4" y="226.9639">get_first_name(): string</text><ellipse cx="42.4" cy="239.9141" fill="#84BE84" rx="3" ry="3" style="stroke:#038048;stroke-width:1;"/><text fill="#000000" font-family="sans-serif" font-size="14" lengthAdjust="spacing" textLength="162.2236" x="51.4" y="243.2607">get_last_name(): string</text><ellipse cx="42.4" cy="256.2109" fill="#84BE84" rx="3" ry="3" style="stroke:#038048;stroke-width:1;"/><text fill="#000000" font-family="sans-serif" font-size="14" lengthAdjust="spacing" textLength="128.8779" x="51.4" y="259.5576">get_email(): string</text><text fill="#000000" font-family="sans-serif" font-size="14" lengthAdjust="spacing" textLength="4.4502" x="51.4" y="275.8545">&#160;</text><ellipse cx="42.4" cy="288.8047" fill="#84BE84" rx="3" ry="3" style="stroke:#038048;stroke-width:1;"/><text fill="#000000" font-family="sans-serif" font-size="14" lengthAdjust="spacing" textLength="214.4092" x="51.4" y="292.1514">_set_id(customer_id: ing): void</text><ellipse cx="42.4" cy="305.1016" fill="#84BE84" rx="3" ry="3" style="stroke:#038048;stroke-width:1;"/><text fill="#000000" font-family="sans-serif" font-size="14" lengthAdjust="spacing" textLength="275.5908" x="51.4" y="308.4482">set_first_name(first_name: string): void</text><ellipse cx="42.4" cy="321.3984" fill="#84BE84" rx="3" ry="3" style="stroke:#038048;stroke-width:1;"/><text fill="#000000" font-family="sans-serif" font-size="14" lengthAdjust="spacing" textLength="271.3799" x="51.4" y="324.7451">set_last_name(last_name: string): void</text><ellipse cx="42.4" cy="337.6953" fill="#84BE84" rx="3" ry="3" style="stroke:#038048;stroke-width:1;"/><text fill="#000000" font-family="sans-serif" font-size="14" lengthAdjust="spacing" textLength="204.6885" x="51.4" y="341.042">set_email(email: string): void</text><text fill="#000000" font-family="sans-serif" font-size="14" lengthAdjust="spacing" textLength="4.4502" x="51.4" y="357.3389">&#160;</text><ellipse cx="42.4" cy="370.2891" fill="#84BE84" rx="3" ry="3" style="stroke:#038048;stroke-width:1;"/><text fill="#000000" font-family="sans-serif" font-size="14" lengthAdjust="spacing" textLength="274.0322" x="51.4" y="373.6357">__eq__(other: CustomerShortInfo): bool</text><ellipse cx="42.4" cy="386.5859" fill="#84BE84" rx="3" ry="3" style="stroke:#038048;stroke-width:1;"/><text fill="#000000" font-family="sans-serif" font-size="14" lengthAdjust="spacing" textLength="106.8184" x="51.4" y="389.9326">__str__(): string</text></g><!--class Customer--><g id="elem_Customer"><rect codeLine="29" fill="#F1F1F1" height="536.9063" id="Customer" rx="2.5" ry="2.5" style="stroke:#181818;stroke-width:0.5;" width="413.4678" x="7" y="457.23"/><ellipse cx="175.4819" cy="473.23" fill="#ADD1B2" rx="11" ry="11" style="stroke:#181818;stroke-width:1;"/><path d="M178.4507,478.8706 Q177.8726,479.1675 177.2319,479.3081 Q176.5913,479.4644 175.8882,479.4644 Q173.3882,479.4644 172.0601,477.8238 Q170.7476,476.1675 170.7476,473.0425 Q170.7476,469.9175 172.0601,468.2613 Q173.3882,466.605 175.8882,466.605 Q176.5913,466.605 177.2319,466.7613 Q177.8882,466.9175 178.4507,467.2144 L178.4507,469.9331 Q177.8257,469.355 177.2319,469.0894 Q176.6382,468.8081 176.0132,468.8081 Q174.6694,468.8081 173.9819,469.8863 Q173.2944,470.9488 173.2944,473.0425 Q173.2944,475.1363 173.9819,476.2144 Q174.6694,477.2769 176.0132,477.2769 Q176.6382,477.2769 177.2319,477.0113 Q177.8257,476.73 178.4507,476.1519 L178.4507,478.8706 Z " fill="#000000"/><text fill="#000000" font-family="sans-serif" font-size="14" lengthAdjust="spacing" textLength="68.0039" x="195.9819" y="478.0767">Customer</text><line style="stroke:#181818;stroke-width:0.5;" x1="8" x2="419.4678" y1="489.23" y2="489.23"/><rect fill="none" height="6" style="stroke:#C82930;stroke-width:1;" width="6" x="15" y="499.8784"/><text fill="#000000" font-family="sans-serif" font-size="14" lengthAdjust="spacing" textLength="154.8066" x="27" y="506.2251">phone_number: string</text><rect fill="none" height="6" style="stroke:#C82930;stroke-width:1;" width="6" x="15" y="516.1753"/><text fill="#000000" font-family="sans-serif" font-size="14" lengthAdjust="spacing" textLength="104.665" x="27" y="522.522">address: string</text><rect fill="none" height="6" style="stroke:#C82930;stroke-width:1;" width="6" x="15" y="532.4722"/><text fill="#000000" font-family="sans-serif" font-size="14" lengthAdjust="spacing" textLength="74.7168" x="27" y="538.8189">city: string</text><rect fill="none" height="6" style="stroke:#C82930;stroke-width:1;" width="6" x="15" y="548.7691"/><text fill="#000000" font-family="sans-serif" font-size="14" lengthAdjust="spacing" textLength="132.8223" x="27" y="555.1157">postal_code: string</text><rect fill="none" height="6" style="stroke:#C82930;stroke-width:1;" width="6" x="15" y="565.0659"/><text fill="#000000" font-family="sans-serif" font-size="14" lengthAdjust="spacing" textLength="102.8945" x="27" y="571.4126">country: string</text><rect fill="none" height="6" style="stroke:#C82930;stroke-width:1;" width="6" x="15" y="581.3628"/><text fill="#000000" font-family="sans-serif" font-size="14" lengthAdjust="spacing" textLength="122.0215" x="27" y="587.7095">date_joined: date</text><line style="stroke:#181818;stroke-width:0.5;" x1="8" x2="419.4678" y1="595.0113" y2="595.0113"/><rect fill="#F24D5C" height="6" style="stroke:#C82930;stroke-width:1;" width="6" x="15" y="605.6597"/><text fill="#000000" font-family="sans-serif" font-size="14" lengthAdjust="spacing" textLength="387.4678" x="27" y="612.0064">__validate_phone_number(phone_number: string): bool</text><rect fill="#F24D5C" height="6" style="stroke:#C82930;stroke-width:1;" width="6" x="15" y="621.9566"/><text fill="#000000" font-family="sans-serif" font-size="14" lengthAdjust="spacing" textLength="340.2178" x="27" y="628.3032">__validate_non_empty_string(value: string): bool</text><rect fill="#F24D5C" height="6" style="stroke:#C82930;stroke-width:1;" width="6" x="15" y="638.2534"/><text fill="#000000" font-family="sans-serif" font-size="14" lengthAdjust="spacing" textLength="343.499" x="27" y="644.6001">__validate_postal_code(postal_code: string): bool</text><rect fill="#F24D5C" height="6" style="stroke:#C82930;stroke-width:1;" width="6" x="15" y="654.5503"/><text fill="#000000" font-family="sans-serif" font-size="14" lengthAdjust="spacing" textLength="325.8008" x="27" y="660.897">__validate_date_joined(date_joined: date) bool</text><rect fill="#F24D5C" height="6" style="stroke:#C82930;stroke-width:1;" width="6" x="15" y="670.8472"/><text fill="#000000" font-family="sans-serif" font-size="14" lengthAdjust="spacing" textLength="338.666" x="27" y="677.1939">from_string(data_str: string): CustomerShortInfo</text><text fill="#000000" font-family="sans-serif" font-size="14" lengthAdjust="spacing" textLength="4.4502" x="27" y="693.4907">&#160;</text><ellipse cx="18" cy="706.4409" fill="#84BE84" rx="3" ry="3" style="stroke:#038048;stroke-width:1;"/><text fill="#000000" font-family="sans-serif" font-size="14" lengthAdjust="spacing" textLength="195.7197" x="27" y="709.7876">get_phone_number(): string</text><ellipse cx="18" cy="722.7378" fill="#84BE84" rx="3" ry="3" style="stroke:#038048;stroke-width:1;"/><text fill="#000000" font-family="sans-serif" font-size="14" lengthAdjust="spacing" textLength="145.5781" x="27" y="726.0845">get_address(): string</text><ellipse cx="18" cy="739.0347" fill="#84BE84" rx="3" ry="3" style="stroke:#038048;stroke-width:1;"/><text fill="#000000" font-family="sans-serif" font-size="14" lengthAdjust="spacing" textLength="162.2236" x="27" y="742.3814">get_last_name(): string</text><ellipse cx="18" cy="755.3316" fill="#84BE84" rx="3" ry="3" style="stroke:#038048;stroke-width:1;"/><text fill="#000000" font-family="sans-serif" font-size="14" lengthAdjust="spacing" textLength="115.6299" x="27" y="758.6782">get_city(): string</text><ellipse cx="18" cy="771.6284" fill="#84BE84" rx="3" ry="3" style="stroke:#038048;stroke-width:1;"/><text fill="#000000" font-family="sans-serif" font-size="14" lengthAdjust="spacing" textLength="173.7354" x="27" y="774.9751">get_postal_code(): string</text><ellipse cx="18" cy="787.9253" fill="#84BE84" rx="3" ry="3" style="stroke:#038048;stroke-width:1;"/><text fill="#000000" font-family="sans-serif" font-size="14" lengthAdjust="spacing" textLength="143.8076" x="27" y="791.272">get_country(): string</text><ellipse cx="18" cy="804.2222" fill="#84BE84" rx="3" ry="3" style="stroke:#038048;stroke-width:1;"/><text fill="#000000" font-family="sans-serif" font-size="14" lengthAdjust="spacing" textLength="171.5547" x="27" y="807.5689">get_date_joined(): string</text><text fill="#000000" font-family="sans-serif" font-size="14" lengthAdjust="spacing" textLength="4.4502" x="27" y="823.8657">&#160;</text><ellipse cx="18" cy="836.8159" fill="#84BE84" rx="3" ry="3" style="stroke:#038048;stroke-width:1;"/><text fill="#000000" font-family="sans-serif" font-size="14" lengthAdjust="spacing" textLength="338.3721" x="27" y="840.1626">set_phone_number(phone_number: string): void</text><ellipse cx="18" cy="853.1128" fill="#84BE84" rx="3" ry="3" style="stroke:#038048;stroke-width:1;"/><text fill="#000000" font-family="sans-serif" font-size="14" lengthAdjust="spacing" textLength="238.0889" x="27" y="856.4595">set_address(address: string): void</text><ellipse cx="18" cy="869.4097" fill="#84BE84" rx="3" ry="3" style="stroke:#038048;stroke-width:1;"/><text fill="#000000" font-family="sans-serif" font-size="14" lengthAdjust="spacing" textLength="178.1924" x="27" y="872.7564">set_city(city: string): void</text><ellipse cx="18" cy="885.7066" fill="#84BE84" rx="3" ry="3" style="stroke:#038048;stroke-width:1;"/><text fill="#000000" font-family="sans-serif" font-size="14" lengthAdjust="spacing" textLength="294.4033" x="27" y="889.0532">set_postal_code(postal_code: string): void</text><ellipse cx="18" cy="902.0034" fill="#84BE84" rx="3" ry="3" style="stroke:#038048;stroke-width:1;"/><text fill="#000000" font-family="sans-serif" font-size="14" lengthAdjust="spacing" textLength="234.5479" x="27" y="905.3501">set_country(country: string): void</text><ellipse cx="18" cy="918.3003" fill="#84BE84" rx="3" ry="3" style="stroke:#038048;stroke-width:1;"/><text fill="#000000" font-family="sans-serif" font-size="14" lengthAdjust="spacing" textLength="281.4219" x="27" y="921.647">set_date_joined(date_joined: date): void</text><text fill="#000000" font-family="sans-serif" font-size="14" lengthAdjust="spacing" textLength="4.4502" x="27" y="937.9439">&#160;</text><ellipse cx="18" cy="950.8941" fill="#84BE84" rx="3" ry="3" style="stroke:#038048;stroke-width:1;"/><text fill="#000000" font-family="sans-serif" font-size="14" lengthAdjust="spacing" textLength="106.8184" x="27" y="954.2407">__str__(): string</text><ellipse cx="18" cy="967.1909" fill="#84BE84" rx="3" ry="3" style="stroke:#038048;stroke-width:1;"/><text fill="#000000" font-family="sans-serif" font-size="14" lengthAdjust="spacing" textLength="129.5137" x="27" y="970.5376">short_info(): string</text><ellipse cx="18" cy="983.4878" fill="#84BE84" rx="3" ry="3" style="stroke:#038048;stroke-width:1;"/><text fill="#000000" font-family="sans-serif" font-size="14" lengthAdjust="spacing" textLength="209.9658" x="27" y="986.8345">__eq__(other: Customer): bool</text></g><!--reverse link CustomerShortInfo to Customer--><g id="link_CustomerShortInfo_Customer"><path codeLine="1" d="M213.73,415.7 C213.73,435.1 213.73,437.02 213.73,456.99 " fill="none" id="CustomerShortInfo-backto-Customer" style="stroke:#181818;stroke-width:1;"/><polygon fill="none" points="213.73,397.7,207.73,415.7,219.73,415.7,213.73,397.7" style="stroke:#181818;stroke-width:1;"/></g><!--SRC=[bLJBRiCW4Bpp5JuIMVw1gBUSUku786AJcCe65t2agCs_T_6B1TEqlONT8JkpC_WqMgTxOTvQRTohkkZYvQkgYjDI9kJKSMktymRx9AIgboAJpR6Gof7g8errJF5U70lhZ5HNKi7zj2HwBhlj2DUCxjbyeWrttFzUsuVZVZYf6BlnJW9Mm72Q4e4xPwsx2EOPK4mZ1vg8qOZU2YFbLJY69j73B7gg1-6-l0YREflyj37F2aLICWlblHnFuQPbGqeRJzflEqA6oJiB8bnUzDG7JanyC4QrQuN9EB5k1t1m4u11poFDZe_Cq6e5NepzMPYG1zuqHbWR2hLqzt0Qj7MyOxLkK8PgFIfd46eoy5rB9M1h_a0YQ_5acgEH3OrMi9x1tTTqGcTycY34bMPuvwuWudGduh3W__r4vf15gfC0Bbl_Ss2zAMaDoqtXiq5f6Ql5uRSfsnyy2hbT-IVfYJ0JPvocgFkxMUYV5Zb9xYBCSoVHcqhVIcczRqo2SRYQVtpR5-dn3G00]--></g></svg>