
<svg xmlns="http://www.w3.org/2000/svg" xmlns:xlink="http://www.w3.org/1999/xlink" contentStyleType="text/css" data-diagram-type="CLASS" height="1208px" preserveAspectRatio="none" style="width:1064px;height:1208px;background:#FFFFFF;" version="1.1" viewBox="0 0 1064 1208" width="1064px" zoomAndPan="magnify"><defs/><g><!--class CustomerShortInfo--><g id="elem_CustomerShortInfo"><rect codeLine="1" fill="#F1F1F1" height="341.3438" id="CustomerShortInfo" rx="2.5" ry="2.5" style="stroke:#181818;stroke-width:0.5;" width="399.4678" x="7" y="311.26"/><ellipse cx="136.4487" cy="327.26" fill="#ADD1B2" rx="11" ry="11" style="stroke:#181818;stroke-width:1;"/><path d="M139.4175,332.9006 Q138.8394,333.1975 138.1987,333.3381 Q137.5581,333.4944 136.855,333.4944 Q134.355,333.4944 133.0269,331.8537 Q131.7144,330.1975 131.7144,327.0725 Q131.7144,323.9475 133.0269,322.2912 Q134.355,320.635 136.855,320.635 Q137.5581,320.635 138.1987,320.7912 Q138.855,320.9475 139.4175,321.2444 L139.4175,323.9631 Q138.7925,323.385 138.1987,323.1194 Q137.605,322.8381 136.98,322.8381 Q135.6362,322.8381 134.9487,323.9162 Q134.2612,324.9787 134.2612,327.0725 Q134.2612,329.1662 134.9487,330.2444 Q135.6362,331.3069 136.98,331.3069 Q137.605,331.3069 138.1987,331.0412 Q138.7925,330.76 139.4175,330.1819 L139.4175,332.9006 Z " fill="#000000"/><text fill="#000000" font-family="sans-serif" font-size="14" lengthAdjust="spacing" textLength="132.0703" x="156.9487" y="332.1067">CustomerShortInfo</text><line style="stroke:#181818;stroke-width:0.5;" x1="8" x2="405.4678" y1="343.26" y2="343.26"/><rect fill="#FFFFFF" fill-opacity="0.00000" height="6" style="stroke:#C82930;stroke-width:1;" width="6" x="15" y="353.9084"/><text fill="#000000" font-family="sans-serif" font-size="14" lengthAdjust="spacing" textLength="113.1211" x="27" y="360.2551">customer_id: int</text><rect fill="#FFFFFF" fill-opacity="0.00000" height="6" style="stroke:#C82930;stroke-width:1;" width="6" x="15" y="370.2053"/><text fill="#000000" font-family="sans-serif" font-size="14" lengthAdjust="spacing" textLength="123.416" x="27" y="376.552">first_name: string</text><rect fill="#FFFFFF" fill-opacity="0.00000" height="6" style="stroke:#C82930;stroke-width:1;" width="6" x="15" y="386.5022"/><text fill="#000000" font-family="sans-serif" font-size="14" lengthAdjust="spacing" textLength="121.3105" x="27" y="392.8489">last_name: string</text><rect fill="#FFFFFF" fill-opacity="0.00000" height="6" style="stroke:#C82930;stroke-width:1;" width="6" x="15" y="402.7991"/><text fill="#000000" font-family="sans-serif" font-size="14" lengthAdjust="spacing" textLength="154.8066" x="27" y="409.1457">phone_number: string</text><line style="stroke:#181818;stroke-width:0.5;" x1="8" x2="405.4678" y1="416.4475" y2="416.4475"/><ellipse cx="18" cy="430.0959" fill="#84BE84" rx="3" ry="3" style="stroke:#038048;stroke-width:1;"/><text fill="#000000" font-family="sans-serif" font-size="14" lengthAdjust="spacing" textLength="338.666" x="27" y="433.4426">from_string(data_str: string): CustomerShortInfo</text><ellipse cx="18" cy="446.3928" fill="#84BE84" rx="3" ry="3" style="stroke:#038048;stroke-width:1;"/><text fill="#000000" font-family="sans-serif" font-size="14" lengthAdjust="spacing" textLength="239.1074" x="27" y="449.7395">validate_id(customer_id: int): bool</text><ellipse cx="18" cy="462.6897" fill="#84BE84" rx="3" ry="3" style="stroke:#038048;stroke-width:1;"/><text fill="#000000" font-family="sans-serif" font-size="14" lengthAdjust="spacing" textLength="241.9717" x="27" y="466.0364">validate_name(name: string): bool</text><ellipse cx="18" cy="478.9866" fill="#84BE84" rx="3" ry="3" style="stroke:#038048;stroke-width:1;"/><text fill="#000000" font-family="sans-serif" font-size="14" lengthAdjust="spacing" textLength="373.4678" x="27" y="482.3332">validate_phone_number(phone_number: string): bool</text><ellipse cx="18" cy="495.2834" fill="#84BE84" rx="3" ry="3" style="stroke:#038048;stroke-width:1;"/><text fill="#000000" font-family="sans-serif" font-size="14" lengthAdjust="spacing" textLength="154.0342" x="27" y="498.6301">get_customer_id(): int</text><ellipse cx="18" cy="511.5803" fill="#84BE84" rx="3" ry="3" style="stroke:#038048;stroke-width:1;"/><text fill="#000000" font-family="sans-serif" font-size="14" lengthAdjust="spacing" textLength="164.3291" x="27" y="514.927">get_first_name(): string</text><ellipse cx="18" cy="527.8772" fill="#84BE84" rx="3" ry="3" style="stroke:#038048;stroke-width:1;"/><text fill="#000000" font-family="sans-serif" font-size="14" lengthAdjust="spacing" textLength="162.2236" x="27" y="531.2239">get_last_name(): string</text><ellipse cx="18" cy="544.1741" fill="#84BE84" rx="3" ry="3" style="stroke:#038048;stroke-width:1;"/><text fill="#000000" font-family="sans-serif" font-size="14" lengthAdjust="spacing" textLength="195.7197" x="27" y="547.5207">get_phone_number(): string</text><ellipse cx="18" cy="560.4709" fill="#84BE84" rx="3" ry="3" style="stroke:#038048;stroke-width:1;"/><text fill="#000000" font-family="sans-serif" font-size="14" lengthAdjust="spacing" textLength="211.0117" x="27" y="563.8176">_set_id(customer_id: int): void</text><ellipse cx="18" cy="576.7678" fill="#84BE84" rx="3" ry="3" style="stroke:#038048;stroke-width:1;"/><text fill="#000000" font-family="sans-serif" font-size="14" lengthAdjust="spacing" textLength="275.5908" x="27" y="580.1145">set_first_name(first_name: string): void</text><ellipse cx="18" cy="593.0647" fill="#84BE84" rx="3" ry="3" style="stroke:#038048;stroke-width:1;"/><text fill="#000000" font-family="sans-serif" font-size="14" lengthAdjust="spacing" textLength="271.3799" x="27" y="596.4114">set_last_name(last_name: string): void</text><ellipse cx="18" cy="609.3616" fill="#84BE84" rx="3" ry="3" style="stroke:#038048;stroke-width:1;"/><text fill="#000000" font-family="sans-serif" font-size="14" lengthAdjust="spacing" textLength="338.3721" x="27" y="612.7082">set_phone_number(phone_number: string): void</text><ellipse cx="18" cy="625.6584" fill="#84BE84" rx="3" ry="3" style="stroke:#038048;stroke-width:1;"/><text fill="#000000" font-family="sans-serif" font-size="14" lengthAdjust="spacing" textLength="246.0322" x="27" y="629.0051">eq(other: CustomerShortInfo): bool</text><ellipse cx="18" cy="641.9553" fill="#84BE84" rx="3" ry="3" style="stroke:#038048;stroke-width:1;"/><text fill="#000000" font-family="sans-serif" font-size="14" lengthAdjust="spacing" textLength="78.8184" x="27" y="645.302">str(): string</text></g><!--class Customer--><g id="elem_Customer"><rect codeLine="23" fill="#F1F1F1" height="488.0156" id="Customer" rx="2.5" ry="2.5" style="stroke:#181818;stroke-width:0.5;" width="364.666" x="159.4" y="713.6"/><ellipse cx="303.4811" cy="729.6" fill="#ADD1B2" rx="11" ry="11" style="stroke:#181818;stroke-width:1;"/><path d="M306.4498,735.2406 Q305.8717,735.5375 305.2311,735.6781 Q304.5904,735.8344 303.8873,735.8344 Q301.3873,735.8344 300.0592,734.1937 Q298.7467,732.5375 298.7467,729.4125 Q298.7467,726.2875 300.0592,724.6312 Q301.3873,722.975 303.8873,722.975 Q304.5904,722.975 305.2311,723.1312 Q305.8873,723.2875 306.4498,723.5844 L306.4498,726.3031 Q305.8248,725.725 305.2311,725.4594 Q304.6373,725.1781 304.0123,725.1781 Q302.6686,725.1781 301.9811,726.2562 Q301.2936,727.3187 301.2936,729.4125 Q301.2936,731.5062 301.9811,732.5844 Q302.6686,733.6469 304.0123,733.6469 Q304.6373,733.6469 305.2311,733.3812 Q305.8248,733.1 306.4498,732.5219 L306.4498,735.2406 Z " fill="#000000"/><text fill="#000000" font-family="sans-serif" font-size="14" lengthAdjust="spacing" textLength="68.0039" x="323.9811" y="734.4467">Customer</text><line style="stroke:#181818;stroke-width:0.5;" x1="160.4" x2="523.066" y1="745.6" y2="745.6"/><rect fill="#FFFFFF" fill-opacity="0.00000" height="6" style="stroke:#C82930;stroke-width:1;" width="6" x="167.4" y="756.2484"/><text fill="#000000" font-family="sans-serif" font-size="14" lengthAdjust="spacing" textLength="87.9648" x="179.4" y="762.5951">email: string</text><rect fill="#FFFFFF" fill-opacity="0.00000" height="6" style="stroke:#C82930;stroke-width:1;" width="6" x="167.4" y="772.5453"/><text fill="#000000" font-family="sans-serif" font-size="14" lengthAdjust="spacing" textLength="104.665" x="179.4" y="778.892">address: string</text><rect fill="#FFFFFF" fill-opacity="0.00000" height="6" style="stroke:#C82930;stroke-width:1;" width="6" x="167.4" y="788.8422"/><text fill="#000000" font-family="sans-serif" font-size="14" lengthAdjust="spacing" textLength="74.7168" x="179.4" y="795.1889">city: string</text><rect fill="#FFFFFF" fill-opacity="0.00000" height="6" style="stroke:#C82930;stroke-width:1;" width="6" x="167.4" y="805.1391"/><text fill="#000000" font-family="sans-serif" font-size="14" lengthAdjust="spacing" textLength="132.8223" x="179.4" y="811.4857">postal_code: string</text><rect fill="#FFFFFF" fill-opacity="0.00000" height="6" style="stroke:#C82930;stroke-width:1;" width="6" x="167.4" y="821.4359"/><text fill="#000000" font-family="sans-serif" font-size="14" lengthAdjust="spacing" textLength="102.8945" x="179.4" y="827.7826">country: string</text><rect fill="#FFFFFF" fill-opacity="0.00000" height="6" style="stroke:#C82930;stroke-width:1;" width="6" x="167.4" y="837.7328"/><text fill="#000000" font-family="sans-serif" font-size="14" lengthAdjust="spacing" textLength="122.0215" x="179.4" y="844.0795">date_joined: date</text><line style="stroke:#181818;stroke-width:0.5;" x1="160.4" x2="523.066" y1="851.3812" y2="851.3812"/><ellipse cx="170.4" cy="865.0297" fill="#84BE84" rx="3" ry="3" style="stroke:#038048;stroke-width:1;"/><text fill="#000000" font-family="sans-serif" font-size="14" lengthAdjust="spacing" textLength="239.7842" x="179.4" y="868.3764">validate_email(email: string): bool</text><ellipse cx="170.4" cy="881.3266" fill="#84BE84" rx="3" ry="3" style="stroke:#038048;stroke-width:1;"/><text fill="#000000" font-family="sans-serif" font-size="14" lengthAdjust="spacing" textLength="326.2178" x="179.4" y="884.6732">validate_non_empty_string(value: string): bool</text><ellipse cx="170.4" cy="897.6234" fill="#84BE84" rx="3" ry="3" style="stroke:#038048;stroke-width:1;"/><text fill="#000000" font-family="sans-serif" font-size="14" lengthAdjust="spacing" textLength="329.499" x="179.4" y="900.9701">validate_postal_code(postal_code: string): bool</text><ellipse cx="170.4" cy="913.9203" fill="#84BE84" rx="3" ry="3" style="stroke:#038048;stroke-width:1;"/><text fill="#000000" font-family="sans-serif" font-size="14" lengthAdjust="spacing" textLength="316.5176" x="179.4" y="917.267">validate_date_joined(date_joined: date): bool</text><ellipse cx="170.4" cy="930.2172" fill="#84BE84" rx="3" ry="3" style="stroke:#038048;stroke-width:1;"/><text fill="#000000" font-family="sans-serif" font-size="14" lengthAdjust="spacing" textLength="338.666" x="179.4" y="933.5639">from_string(data_str: string): CustomerShortInfo</text><ellipse cx="170.4" cy="946.5141" fill="#84BE84" rx="3" ry="3" style="stroke:#038048;stroke-width:1;"/><text fill="#000000" font-family="sans-serif" font-size="14" lengthAdjust="spacing" textLength="128.8779" x="179.4" y="949.8607">get_email(): string</text><ellipse cx="170.4" cy="962.8109" fill="#84BE84" rx="3" ry="3" style="stroke:#038048;stroke-width:1;"/><text fill="#000000" font-family="sans-serif" font-size="14" lengthAdjust="spacing" textLength="145.5781" x="179.4" y="966.1576">get_address(): string</text><ellipse cx="170.4" cy="979.1078" fill="#84BE84" rx="3" ry="3" style="stroke:#038048;stroke-width:1;"/><text fill="#000000" font-family="sans-serif" font-size="14" lengthAdjust="spacing" textLength="162.2236" x="179.4" y="982.4545">get_last_name(): string</text><ellipse cx="170.4" cy="995.4047" fill="#84BE84" rx="3" ry="3" style="stroke:#038048;stroke-width:1;"/><text fill="#000000" font-family="sans-serif" font-size="14" lengthAdjust="spacing" textLength="115.6299" x="179.4" y="998.7514">get_city(): string</text><ellipse cx="170.4" cy="1011.7016" fill="#84BE84" rx="3" ry="3" style="stroke:#038048;stroke-width:1;"/><text fill="#000000" font-family="sans-serif" font-size="14" lengthAdjust="spacing" textLength="173.7354" x="179.4" y="1015.0482">get_postal_code(): string</text><ellipse cx="170.4" cy="1027.9984" fill="#84BE84" rx="3" ry="3" style="stroke:#038048;stroke-width:1;"/><text fill="#000000" font-family="sans-serif" font-size="14" lengthAdjust="spacing" textLength="143.8076" x="179.4" y="1031.3451">get_country(): string</text><ellipse cx="170.4" cy="1044.2953" fill="#84BE84" rx="3" ry="3" style="stroke:#038048;stroke-width:1;"/><text fill="#000000" font-family="sans-serif" font-size="14" lengthAdjust="spacing" textLength="171.5547" x="179.4" y="1047.642">get_date_joined(): string</text><ellipse cx="170.4" cy="1060.5922" fill="#84BE84" rx="3" ry="3" style="stroke:#038048;stroke-width:1;"/><text fill="#000000" font-family="sans-serif" font-size="14" lengthAdjust="spacing" textLength="204.6885" x="179.4" y="1063.9389">set_email(email: string): void</text><ellipse cx="170.4" cy="1076.8891" fill="#84BE84" rx="3" ry="3" style="stroke:#038048;stroke-width:1;"/><text fill="#000000" font-family="sans-serif" font-size="14" lengthAdjust="spacing" textLength="238.0889" x="179.4" y="1080.2357">set_address(address: string): void</text><ellipse cx="170.4" cy="1093.1859" fill="#84BE84" rx="3" ry="3" style="stroke:#038048;stroke-width:1;"/><text fill="#000000" font-family="sans-serif" font-size="14" lengthAdjust="spacing" textLength="178.1924" x="179.4" y="1096.5326">set_city(city: string): void</text><ellipse cx="170.4" cy="1109.4828" fill="#84BE84" rx="3" ry="3" style="stroke:#038048;stroke-width:1;"/><text fill="#000000" font-family="sans-serif" font-size="14" lengthAdjust="spacing" textLength="294.4033" x="179.4" y="1112.8295">set_postal_code(postal_code: string): void</text><ellipse cx="170.4" cy="1125.7797" fill="#84BE84" rx="3" ry="3" style="stroke:#038048;stroke-width:1;"/><text fill="#000000" font-family="sans-serif" font-size="14" lengthAdjust="spacing" textLength="234.5479" x="179.4" y="1129.1264">set_country(country: string): void</text><ellipse cx="170.4" cy="1142.0766" fill="#84BE84" rx="3" ry="3" style="stroke:#038048;stroke-width:1;"/><text fill="#000000" font-family="sans-serif" font-size="14" lengthAdjust="spacing" textLength="281.4219" x="179.4" y="1145.4232">set_date_joined(date_joined: date): void</text><ellipse cx="170.4" cy="1158.3734" fill="#84BE84" rx="3" ry="3" style="stroke:#038048;stroke-width:1;"/><text fill="#000000" font-family="sans-serif" font-size="14" lengthAdjust="spacing" textLength="78.8184" x="179.4" y="1161.7201">str(): string</text><ellipse cx="170.4" cy="1174.6703" fill="#84BE84" rx="3" ry="3" style="stroke:#038048;stroke-width:1;"/><text fill="#000000" font-family="sans-serif" font-size="14" lengthAdjust="spacing" textLength="129.5137" x="179.4" y="1178.017">short_info(): string</text><ellipse cx="170.4" cy="1190.9672" fill="#84BE84" rx="3" ry="3" style="stroke:#038048;stroke-width:1;"/><text fill="#000000" font-family="sans-serif" font-size="14" lengthAdjust="spacing" textLength="181.9658" x="179.4" y="1194.3139">eq(other: Customer): bool</text></g><!--class CustomerRepBase--><g id="elem_CustomerRepBase"><rect codeLine="54" fill="#F1F1F1" height="227.2656" id="CustomerRepBase" rx="2.5" ry="2.5" style="stroke:#181818;stroke-width:0.5;" width="451.8721" x="354.8" y="7"/><ellipse cx="511.8249" cy="23" fill="#ADD1B2" rx="11" ry="11" style="stroke:#181818;stroke-width:1;"/><path d="M514.7937,28.6406 Q514.2155,28.9375 513.5749,29.0781 Q512.9343,29.2344 512.2312,29.2344 Q509.7312,29.2344 508.403,27.5938 Q507.0905,25.9375 507.0905,22.8125 Q507.0905,19.6875 508.403,18.0313 Q509.7312,16.375 512.2312,16.375 Q512.9343,16.375 513.5749,16.5313 Q514.2312,16.6875 514.7937,16.9844 L514.7937,19.7031 Q514.1687,19.125 513.5749,18.8594 Q512.9812,18.5781 512.3562,18.5781 Q511.0124,18.5781 510.3249,19.6563 Q509.6374,20.7188 509.6374,22.8125 Q509.6374,24.9063 510.3249,25.9844 Q511.0124,27.0469 512.3562,27.0469 Q512.9812,27.0469 513.5749,26.7813 Q514.1687,26.5 514.7937,25.9219 L514.7937,28.6406 Z " fill="#000000"/><text fill="#000000" font-family="sans-serif" font-size="14" lengthAdjust="spacing" textLength="129.3223" x="532.3249" y="27.8467">CustomerRepBase</text><line style="stroke:#181818;stroke-width:0.5;" x1="355.8" x2="805.6721" y1="39" y2="39"/><rect fill="#FFFFFF" fill-opacity="0.00000" height="6" style="stroke:#C82930;stroke-width:1;" width="6" x="362.8" y="49.6484"/><text fill="#000000" font-family="sans-serif" font-size="14" lengthAdjust="spacing" textLength="109.5049" x="374.8" y="55.9951">file_path: string</text><rect fill="#FFFFFF" fill-opacity="0.00000" height="6" style="stroke:#C82930;stroke-width:1;" width="6" x="362.8" y="65.9453"/><text fill="#000000" font-family="sans-serif" font-size="14" lengthAdjust="spacing" textLength="143.7461" x="374.8" y="72.292">customers: List[dict]</text><line style="stroke:#181818;stroke-width:0.5;" x1="355.8" x2="805.6721" y1="79.5938" y2="79.5938"/><ellipse cx="365.8" cy="93.2422" fill="#84BE84" rx="3" ry="3" style="stroke:#038048;stroke-width:1;"/><text fill="#000000" font-family="sans-serif" font-size="14" lengthAdjust="spacing" textLength="198.5908" x="374.8" y="96.5889">_load_customers(): List[dict]</text><ellipse cx="365.8" cy="109.5391" fill="#84BE84" rx="3" ry="3" style="stroke:#038048;stroke-width:1;"/><text fill="#000000" font-family="sans-serif" font-size="14" lengthAdjust="spacing" textLength="169.709" x="374.8" y="112.8857">_save_customers(): void</text><ellipse cx="365.8" cy="125.8359" fill="#84BE84" rx="3" ry="3" style="stroke:#038048;stroke-width:1;"/><text fill="#000000" font-family="sans-serif" font-size="14" lengthAdjust="spacing" textLength="296.2285" x="374.8" y="129.1826">get_by_id(customer_id: int): Optional[dict]</text><ellipse cx="365.8" cy="142.1328" fill="#84BE84" rx="3" ry="3" style="stroke:#038048;stroke-width:1;"/><text fill="#000000" font-family="sans-serif" font-size="14" lengthAdjust="spacing" textLength="286.6787" x="374.8" y="145.4795">get_k_n_short_list(k: int, n: int): List[dict]</text><ellipse cx="365.8" cy="158.4297" fill="#84BE84" rx="3" ry="3" style="stroke:#038048;stroke-width:1;"/><text fill="#000000" font-family="sans-serif" font-size="14" lengthAdjust="spacing" textLength="196.1162" x="374.8" y="161.7764">sort_by_field(field: str): void</text><ellipse cx="365.8" cy="174.7266" fill="#84BE84" rx="3" ry="3" style="stroke:#038048;stroke-width:1;"/><text fill="#000000" font-family="sans-serif" font-size="14" lengthAdjust="spacing" textLength="288.5859" x="374.8" y="178.0732">add_customer(customer_data: dict): void</text><ellipse cx="365.8" cy="191.0234" fill="#84BE84" rx="3" ry="3" style="stroke:#038048;stroke-width:1;"/><text fill="#000000" font-family="sans-serif" font-size="14" lengthAdjust="spacing" textLength="425.8721" x="374.8" y="194.3701">update_customer(customer_id: int, updated_data: dict): void</text><ellipse cx="365.8" cy="207.3203" fill="#84BE84" rx="3" ry="3" style="stroke:#038048;stroke-width:1;"/><text fill="#000000" font-family="sans-serif" font-size="14" lengthAdjust="spacing" textLength="279.8701" x="374.8" y="210.667">delete_customer(customer_id: int): void</text><ellipse cx="365.8" cy="223.6172" fill="#84BE84" rx="3" ry="3" style="stroke:#038048;stroke-width:1;"/><text fill="#000000" font-family="sans-serif" font-size="14" lengthAdjust="spacing" textLength="107.8301" x="374.8" y="226.9639">get_count(): int</text></g><!--class CustomerRepJSON--><g id="elem_CustomerRepJSON"><rect codeLine="69" fill="#F1F1F1" height="80.5938" id="CustomerRepJSON" rx="2.5" ry="2.5" style="stroke:#181818;stroke-width:0.5;" width="224.5908" x="572.44" y="441.64"/><ellipse cx="615.7232" cy="457.64" fill="#ADD1B2" rx="11" ry="11" style="stroke:#181818;stroke-width:1;"/><path d="M618.692,463.2806 Q618.1138,463.5775 617.4732,463.7181 Q616.8326,463.8744 616.1295,463.8744 Q613.6295,463.8744 612.3013,462.2337 Q610.9888,460.5775 610.9888,457.4525 Q610.9888,454.3275 612.3013,452.6712 Q613.6295,451.015 616.1295,451.015 Q616.8326,451.015 617.4732,451.1712 Q618.1295,451.3275 618.692,451.6244 L618.692,454.3431 Q618.067,453.765 617.4732,453.4994 Q616.8795,453.2181 616.2545,453.2181 Q614.9107,453.2181 614.2232,454.2962 Q613.5357,455.3587 613.5357,457.4525 Q613.5357,459.5462 614.2232,460.6244 Q614.9107,461.6869 616.2545,461.6869 Q616.8795,461.6869 617.4732,461.4212 Q618.067,461.14 618.692,460.5619 L618.692,463.2806 Z " fill="#000000"/><text fill="#000000" font-family="sans-serif" font-size="14" lengthAdjust="spacing" textLength="129.7393" x="636.0084" y="462.4867">CustomerRepJSON</text><line style="stroke:#181818;stroke-width:0.5;" x1="573.44" x2="796.0308" y1="473.64" y2="473.64"/><line style="stroke:#181818;stroke-width:0.5;" x1="573.44" x2="796.0308" y1="481.64" y2="481.64"/><ellipse cx="583.44" cy="495.2884" fill="#84BE84" rx="3" ry="3" style="stroke:#038048;stroke-width:1;"/><text fill="#000000" font-family="sans-serif" font-size="14" lengthAdjust="spacing" textLength="198.5908" x="592.44" y="498.6351">_load_customers(): List[dict]</text><ellipse cx="583.44" cy="511.5853" fill="#84BE84" rx="3" ry="3" style="stroke:#038048;stroke-width:1;"/><text fill="#000000" font-family="sans-serif" font-size="14" lengthAdjust="spacing" textLength="169.709" x="592.44" y="514.932">_save_customers(): void</text></g><!--class CustomerRepYAML--><g id="elem_CustomerRepYAML"><rect codeLine="74" fill="#F1F1F1" height="80.5938" id="CustomerRepYAML" rx="2.5" ry="2.5" style="stroke:#181818;stroke-width:0.5;" width="224.5908" x="832.44" y="441.64"/><ellipse cx="874.1482" cy="457.64" fill="#ADD1B2" rx="11" ry="11" style="stroke:#181818;stroke-width:1;"/><path d="M877.117,463.2806 Q876.5388,463.5775 875.8982,463.7181 Q875.2576,463.8744 874.5545,463.8744 Q872.0545,463.8744 870.7263,462.2337 Q869.4138,460.5775 869.4138,457.4525 Q869.4138,454.3275 870.7263,452.6712 Q872.0545,451.015 874.5545,451.015 Q875.2576,451.015 875.8982,451.1712 Q876.5545,451.3275 877.117,451.6244 L877.117,454.3431 Q876.492,453.765 875.8982,453.4994 Q875.3045,453.2181 874.6795,453.2181 Q873.3357,453.2181 872.6482,454.2962 Q871.9607,455.3587 871.9607,457.4525 Q871.9607,459.5462 872.6482,460.6244 Q873.3357,461.6869 874.6795,461.6869 Q875.3045,461.6869 875.8982,461.4212 Q876.492,461.14 877.117,460.5619 L877.117,463.2806 Z " fill="#000000"/><text fill="#000000" font-family="sans-serif" font-size="14" lengthAdjust="spacing" textLength="133.2393" x="894.0834" y="462.4867">CustomerRepYAML</text><line style="stroke:#181818;stroke-width:0.5;" x1="833.44" x2="1056.0308" y1="473.64" y2="473.64"/><line style="stroke:#181818;stroke-width:0.5;" x1="833.44" x2="1056.0308" y1="481.64" y2="481.64"/><ellipse cx="843.44" cy="495.2884" fill="#84BE84" rx="3" ry="3" style="stroke:#038048;stroke-width:1;"/><text fill="#000000" font-family="sans-serif" font-size="14" lengthAdjust="spacing" textLength="198.5908" x="852.44" y="498.6351">_load_customers(): List[dict]</text><ellipse cx="843.44" cy="511.5853" fill="#84BE84" rx="3" ry="3" style="stroke:#038048;stroke-width:1;"/><text fill="#000000" font-family="sans-serif" font-size="14" lengthAdjust="spacing" textLength="169.709" x="852.44" y="514.932">_save_customers(): void</text></g><!--reverse link CustomerShortInfo to Customer--><g id="link_CustomerShortInfo_Customer"><path codeLine="79" d="M260.1198,670.2518 C265.7098,689.8818 266.57,692.88 272.37,713.25 " fill="#FFFFFF" fill-opacity="0.00000" id="CustomerShortInfo-backto-Customer" style="stroke:#181818;stroke-width:1;"/><polygon fill="#FFFFFF" fill-opacity="0.00000" points="255.19,652.94,254.3493,671.895,265.8904,668.6085,255.19,652.94" style="stroke:#181818;stroke-width:1;"/></g><!--reverse link CustomerRepBase to CustomerRepJSON--><g id="link_CustomerRepBase_CustomerRepJSON"><path codeLine="80" d="M618.3564,251.6198 C638.7964,322.2098 658.88,391.6 673.22,441.14 " fill="#FFFFFF" fill-opacity="0.00000" id="CustomerRepBase-backto-CustomerRepJSON" style="stroke:#181818;stroke-width:1;"/><polygon fill="#FFFFFF" fill-opacity="0.00000" points="613.35,234.33,612.5932,253.2886,624.1197,249.951,613.35,234.33" style="stroke:#181818;stroke-width:1;"/></g><!--reverse link CustomerRepBase to CustomerRepYAML--><g id="link_CustomerRepBase_CustomerRepYAML"><path codeLine="81" d="M744.8962,246.2174 C773.7562,270.3174 789.12,284.93 814.73,311.26 C854.72,352.35 893.79,405.64 918.49,441.44 " fill="#FFFFFF" fill-opacity="0.00000" id="CustomerRepBase-backto-CustomerRepYAML" style="stroke:#181818;stroke-width:1;"/><polygon fill="#FFFFFF" fill-opacity="0.00000" points="731.08,234.68,741.0504,250.8228,748.742,241.612,731.08,234.68" style="stroke:#181818;stroke-width:1;"/></g><!--link CustomerRepBase to Customer--><g id="link_CustomerRepBase_Customer"><path codeLine="83" d="M523.87,234.51 C512.78,259.37 502.04,285.87 493.73,311.26 C445.58,458.45 459.47,501.92 423.73,652.6 C419.03,672.42 415.4505,687.0855 410.2205,707.6255 " fill="#FFFFFF" fill-opacity="0.00000" id="CustomerRepBase-to-Customer" style="stroke:#181818;stroke-width:1;"/><polygon fill="#181818" points="408.74,713.44,414.8371,705.7053,409.9738,708.5946,407.0845,703.7313,408.74,713.44" style="stroke:#181818;stroke-width:1;"/><text fill="#000000" font-family="sans-serif" font-size="13" lengthAdjust="spacing" textLength="59.8584" x="494.73" y="486.4969">manages</text><text fill="#000000" font-family="sans-serif" font-size="13" lengthAdjust="spacing" textLength="8.271" x="511.9794" y="254.3569">1</text><text fill="#000000" font-family="sans-serif" font-size="13" lengthAdjust="spacing" textLength="23.0356" x="387.5619" y="702.2512">0..*</text></g><!--link CustomerRepBase to CustomerShortInfo--><g id="link_CustomerRepBase_CustomerShortInfo"><path codeLine="84" d="M423.54,234.37 C411.83,244.17 400.43,254.19 389.73,264.26 C374.23,278.86 362.8114,290.3027 347.7814,306.5727 " fill="#FFFFFF" fill-opacity="0.00000" id="CustomerRepBase-to-CustomerShortInfo" style="stroke:#181818;stroke-width:1;"/><polygon fill="#181818" points="343.71,310.98,352.7552,307.0834,347.1028,307.3073,346.8789,301.6549,343.71,310.98" style="stroke:#181818;stroke-width:1;"/><text fill="#000000" font-family="sans-serif" font-size="13" lengthAdjust="spacing" textLength="59.8584" x="390.73" y="277.3269">manages</text><text fill="#000000" font-family="sans-serif" font-size="13" lengthAdjust="spacing" textLength="8.271" x="405.2221" y="254.2079">1</text><text fill="#000000" font-family="sans-serif" font-size="13" lengthAdjust="spacing" textLength="23.0356" x="326.3964" y="299.9638">0..*</text></g><!--SRC=[hLPDRnCn4Btlhx1oSg5RmJL2I2KdgfPAz8GGiforDp7rsilQ6oa2_ZkszyjV8OKsXoZnl1c_cVTcamt7Ie5DhxHiQFUmbvt-A6e9VXR0lCfg3216re09FPpMh5CQ2TpGDL2wOs8td9jQkUDsBmL5ec-sj9iZBlIwxcI3XXD8iCRsymIvMAUyXgm3vioWgM45OuOcQoibZu2M5FIPvM4-KvYZ7QJjg4RUzV1Y6P6BBMEo8MyYBZeFAnSCY4Hnf0mWt_b1CZA0L7X_gbY2NlWaCYROfynfoQ0_eDHx6qpq3EPfKhrUVnV59Z3dv4dQOCP3Xs52EgfKU5WnVOoCA9N675MIH0wjP2zq5w6T8xvB9gYPh_rIH6vnH610vuJxf33WLXydgvj8VywA2rUOuPrFyYZ3X7wGyd-BPwqvT9tnx2Z2FtlTwfJT0My2kRH1irp87qCKLdC7iMwXmwTc8cSbE4VUTrgwAsU5Z2gEVKMUJ73djFRGEdc6AAihOaROE98kw-IRP24_q_O3LdJQovfnOrkizz5kZMWpmrkcz5V2AlrjN2N49IRpCzHPnyECJpjye25awSoAlJsUU1ZUjvf9WRbVpIOy8e66_hcv2puw_2KGKrxCG5cekQLcb1Fetbs70HFZavdaGiPkbX74r0h0VUi4I_4Z-Kim8CYf0eHo-hS2oP2ScQOVg9oGDm_tdqOXdwDAhlINwxlR5ogT_4rvzwiivxkAs9X1T6poBCZIBHBKwkqAbELxi7fpTVLgjVmchK631TvHzTICXVkS-WS0]--></g></svg>
